<?xml version="1.0" encoding="UTF-8" standalone="no"?>
<!-- Created with Inkscape (http://www.inkscape.org/) -->

<svg
   xmlns:dc="http://purl.org/dc/elements/1.1/"
   xmlns:cc="http://creativecommons.org/ns#"
   xmlns:rdf="http://www.w3.org/1999/02/22-rdf-syntax-ns#"
   xmlns:svg="http://www.w3.org/2000/svg"
   xmlns="http://www.w3.org/2000/svg"
   xmlns:xlink="http://www.w3.org/1999/xlink"
   xmlns:sodipodi="http://sodipodi.sourceforge.net/DTD/sodipodi-0.dtd"
   xmlns:inkscape="http://www.inkscape.org/namespaces/inkscape"
   width="320"
   height="200"
   id="svg2"
   version="1.1"
   inkscape:version="0.48.2 r9819"
   sodipodi:docname="splash.svg">
  <defs
     id="defs4">
    <linearGradient
       id="linearGradient3755">
      <stop
         style="stop-color:#ffbc59;stop-opacity:1;"
         offset="0"
         id="stop3757" />
      <stop
         style="stop-color:#9da6ff;stop-opacity:1;"
         offset="1"
         id="stop3759" />
    </linearGradient>
    <linearGradient
       inkscape:collect="always"
       xlink:href="#linearGradient3755"
       id="linearGradient3761"
       x1="152"
       y1="132.6468"
       x2="152"
       y2="-0.0024996162"
       gradientUnits="userSpaceOnUse" />
  </defs>
  <sodipodi:namedview
     id="base"
     pagecolor="#ffffff"
     bordercolor="#666666"
     borderopacity="1.0"
     inkscape:pageopacity="0.0"
     inkscape:pageshadow="2"
     inkscape:zoom="2"
     inkscape:cx="172.88898"
     inkscape:cy="105.24188"
     inkscape:document-units="px"
     inkscape:current-layer="layer1"
     showgrid="false"
     inkscape:window-width="1280"
     inkscape:window-height="712"
     inkscape:window-x="0"
     inkscape:window-y="0"
     inkscape:window-maximized="0" />
  <metadata
     id="metadata7">
    <rdf:RDF>
      <cc:Work
         rdf:about="">
        <dc:format>image/svg+xml</dc:format>
        <dc:type
           rdf:resource="http://purl.org/dc/dcmitype/StillImage" />
        <dc:title></dc:title>
      </cc:Work>
    </rdf:RDF>
  </metadata>
  <g
     inkscape:label="Ebene 1"
     inkscape:groupmode="layer"
     id="layer1"
     transform="translate(0,-852.36218)">
    <rect
       style="fill:url(#linearGradient3761);fill-rule:evenodd;stroke:#000000;stroke-width:1px;stroke-linecap:butt;stroke-linejoin:miter;stroke-opacity:1;fill-opacity:1"
       id="rect2985"
       width="320"
       height="200"
       x="0.5"
       y="0.50000072"
       transform="translate(0,852.36218)"
       ry="14.5" />
    <g
       id="g1915"
       transform="translate(167,858.36218)">
      <path
         inkscape:connector-curvature="0"
         style="fill:none"
         d="M 0,94 C 0,62.666667 0,31.333333 0,0 c 32.333333,0 64.666667,0 97,0 0,62.666667 0,125.33333 0,188 -32.333333,0 -64.666667,0 -97,0 0,-31.33333 0,-62.66667 0,-94 z"
         id="path1919" />
      <path
         inkscape:connector-curvature="0"
         style="fill:#666666;fill-opacity:1"
         d="M 37.664899,184.58554 C 21.895418,182.55403 5.6661972,167.64367 3.3987193,150.1511 1.2240485,135.52701 4.3614628,118.45697 16.450174,108.80568 c 5.302266,-3.61399 12.514873,-7.66322 18.875289,-7.18134 0.190498,6.47429 -0.190498,14.34359 0,20.81788 -7.575785,0.84345 -14.909036,9.45432 -14.756412,17.33851 0.185705,10.26001 4.726475,19.68681 14.597667,22.75753 10.918589,3.67394 23.41726,2.62901 33.524687,-3.47905 8.349716,-6.50563 9.122182,-18.61836 4.755062,-27.83618 C 71.482045,126.15057 67.247476,122.42665 61.5,122.44222 l 0,18.05778 -16.20641,0 0,-38.87566 49.07678,0 0,13.97989 -13.442395,0.12434 c 12.543924,7.15066 13.82967,22.58379 13.186887,33.29078 0.451879,18.39283 -17.71936,33.38895 -35.741983,35.39399 -6.520408,0.48886 -12.037383,0.51459 -20.70798,0.1722 z"
         id="path1927"
         sodipodi:nodetypes="ccccccccccccccccccc" />
      <path
         inkscape:connector-curvature="0"
         style="fill:#d8382d;fill-opacity:1"
         d="M 2.6030317,93.90175 2.5,73.5 l 92,0 L 94.489423,94 2.6030317,93.90175 z"
         id="path1925"
         sodipodi:nodetypes="ccccc" />
      <path
         inkscape:connector-curvature="0"
         style="fill:#40bf4c;fill-opacity:1"
         d="M 37.666668,66.333336 37.666668,44.5 2,44.5 l 0,-19 35.666668,0 0,-24.5 L 59,1 l 0,24.5 35.5,0 0,19 -35.5,0 -0.351683,21.787772 -20.981649,0.04556 z"
         id="path1917"
         sodipodi:nodetypes="ccccccccccccc" />
    </g>
    <text
       xml:space="preserve"
       style="font-size:222.52912903px;font-style:normal;font-weight:normal;line-height:125%;letter-spacing:0px;word-spacing:0px;fill:#000000;fill-opacity:1;stroke:none;font-family:Sans"
       x="1.0952749"
       y="1020.1769"
       id="text3841"
       sodipodi:linespacing="125%"><tspan
         sodipodi:role="line"
         id="tspan3843"
         x="1.0952749"
         y="1020.1769">Q</tspan></text>
    <text
       xml:space="preserve"
       style="font-size:165.16662598px;font-style:normal;font-weight:normal;line-height:125%;letter-spacing:0px;word-spacing:0px;fill:#000000;fill-opacity:1;stroke:none;font-family:Sans"
       x="56.050632"
       y="1009.9261"
       id="text3845"
       sodipodi:linespacing="125%"><tspan
         sodipodi:role="line"
         id="tspan3847"
         x="56.050632"
         y="1009.9261">t</tspan></text>
  </g>
</svg>
