<?xml version="1.0" encoding="UTF-8" standalone="no"?>
<!-- Created with Inkscape (http://www.inkscape.org/) -->

<svg
   xmlns:dc="http://purl.org/dc/elements/1.1/"
   xmlns:cc="http://creativecommons.org/ns#"
   xmlns:rdf="http://www.w3.org/1999/02/22-rdf-syntax-ns#"
   xmlns:svg="http://www.w3.org/2000/svg"
   xmlns="http://www.w3.org/2000/svg"
   xmlns:xlink="http://www.w3.org/1999/xlink"
   xmlns:sodipodi="http://sodipodi.sourceforge.net/DTD/sodipodi-0.dtd"
   xmlns:inkscape="http://www.inkscape.org/namespaces/inkscape"
   width="320"
   height="200"
   id="svg2"
   version="1.1"
   inkscape:version="0.48.2 r9819"
   sodipodi:docname="splash.svg"
   inkscape:export-filename="/Volumes/Daten/Projects/MsPiggit/core/resources/images/splash.png"
   inkscape:export-xdpi="90"
   inkscape:export-ydpi="90">
  <defs
     id="defs4">
    <linearGradient
       inkscape:collect="always"
       id="linearGradient3123">
      <stop
         style="stop-color:#362701;stop-opacity:1;"
         offset="0"
         id="stop3125" />
      <stop
         style="stop-color:#362701;stop-opacity:0;"
         offset="1"
         id="stop3127" />
    </linearGradient>
    <linearGradient
       inkscape:collect="always"
       id="linearGradient3115">
      <stop
         style="stop-color:#362701;stop-opacity:1;"
         offset="0"
         id="stop3117" />
      <stop
         style="stop-color:#362701;stop-opacity:0;"
         offset="1"
         id="stop3119" />
    </linearGradient>
    <linearGradient
       inkscape:collect="always"
       id="linearGradient3107">
      <stop
         style="stop-color:#362701;stop-opacity:1;"
         offset="0"
         id="stop3109" />
      <stop
         style="stop-color:#362701;stop-opacity:0;"
         offset="1"
         id="stop3111" />
    </linearGradient>
    <linearGradient
       inkscape:collect="always"
       id="linearGradient3099">
      <stop
         style="stop-color:#f03c2e;stop-opacity:1;"
         offset="0"
         id="stop3101" />
      <stop
         style="stop-color:#f03c2e;stop-opacity:0;"
         offset="1"
         id="stop3103" />
    </linearGradient>
    <linearGradient
       id="linearGradient3971">
      <stop
         style="stop-color:#40bf4c;stop-opacity:0.2521739;"
         offset="0"
         id="stop3973" />
      <stop
         style="stop-color:#40bf4c;stop-opacity:1;"
         offset="1"
         id="stop3975" />
    </linearGradient>
    <linearGradient
       id="linearGradient3963">
      <stop
         style="stop-color:#d8382d;stop-opacity:0.2521739;"
         offset="0"
         id="stop3965" />
      <stop
         style="stop-color:#d8382d;stop-opacity:1;"
         offset="1"
         id="stop3967" />
    </linearGradient>
    <linearGradient
       id="linearGradient3955">
      <stop
         style="stop-color:#666666;stop-opacity:0.42173913;"
         offset="0"
         id="stop3957" />
      <stop
         style="stop-color:#666666;stop-opacity:1;"
         offset="1"
         id="stop3959" />
    </linearGradient>
    <linearGradient
       id="linearGradient3939">
      <stop
         id="stop3941"
         offset="0"
         style="stop-color:#cf7853;stop-opacity:1;" />
      <stop
         id="stop3943"
         offset="1"
         style="stop-color:#ffafa1;stop-opacity:1;" />
    </linearGradient>
    <linearGradient
       id="linearGradient3893">
      <stop
         style="stop-color:#ffafa1;stop-opacity:1;"
         offset="0"
         id="stop3895" />
      <stop
         style="stop-color:#ffead6;stop-opacity:1;"
         offset="1"
         id="stop3897" />
    </linearGradient>
    <linearGradient
       id="linearGradient3885">
      <stop
         style="stop-color:#000000;stop-opacity:1;"
         offset="0"
         id="stop3887" />
      <stop
         style="stop-color:#ffafa1;stop-opacity:1;"
         offset="1"
         id="stop3889" />
    </linearGradient>
    <linearGradient
       id="linearGradient3861">
      <stop
         id="stop3863"
         offset="0"
         style="stop-color:#ff97ae;stop-opacity:1;" />
      <stop
         id="stop3865"
         offset="1"
         style="stop-color:#ffafa1;stop-opacity:1;" />
    </linearGradient>
    <linearGradient
       id="linearGradient3847">
      <stop
         style="stop-color:#ffe5ae;stop-opacity:1;"
         offset="0"
         id="stop3849" />
      <stop
         style="stop-color:#ffafa1;stop-opacity:1;"
         offset="1"
         id="stop3851" />
    </linearGradient>
    <linearGradient
       id="linearGradient3755">
      <stop
         style="stop-color:#08bc4b;stop-opacity:1;"
         offset="0"
         id="stop3757" />
      <stop
         style="stop-color:#001c50;stop-opacity:1;"
         offset="1"
         id="stop3759" />
    </linearGradient>
    <linearGradient
       inkscape:collect="always"
       xlink:href="#linearGradient3755"
       id="linearGradient3761"
       x1="152"
       y1="132.6468"
       x2="152"
       y2="26.976702"
       gradientUnits="userSpaceOnUse" />
    <radialGradient
       inkscape:collect="always"
       xlink:href="#linearGradient3847"
       id="radialGradient3853"
       cx="256.59488"
       cy="94.853523"
       fx="256.59488"
       fy="94.853523"
       r="47.25"
       gradientUnits="userSpaceOnUse"
       gradientTransform="matrix(0.60846561,0.81481481,-0.80124696,0.59833377,170.62193,-175.58138)" />
    <linearGradient
       inkscape:collect="always"
       xlink:href="#linearGradient3861"
       id="linearGradient3859"
       x1="276.58191"
       y1="86.086212"
       x2="277.39655"
       y2="95.862061"
       gradientUnits="userSpaceOnUse" />
    <radialGradient
       inkscape:collect="always"
       xlink:href="#linearGradient3885"
       id="radialGradient3911"
       gradientUnits="userSpaceOnUse"
       gradientTransform="matrix(0.27195033,1.0296596,-0.90389653,0.2387342,221.2169,-197.42371)"
       cx="233.46516"
       cy="56.690838"
       fx="233.46516"
       fy="56.690838"
       r="9.2848385" />
    <linearGradient
       inkscape:collect="always"
       xlink:href="#linearGradient3893"
       id="linearGradient3913"
       gradientUnits="userSpaceOnUse"
       x1="236.259"
       y1="909.23718"
       x2="234.39014"
       y2="906.23718" />
    <radialGradient
       inkscape:collect="always"
       xlink:href="#linearGradient3939"
       id="radialGradient3945"
       gradientUnits="userSpaceOnUse"
       gradientTransform="matrix(0.97152564,-0.94993352,-0.79799149,-0.81613006,70.021313,1153.8302)"
       cx="236.50737"
       cy="45.796669"
       fx="236.50737"
       fy="45.796669"
       r="9.2848387" />
    <radialGradient
       inkscape:collect="always"
       xlink:href="#linearGradient3847"
       id="radialGradient3953"
       cx="205.75186"
       cy="100.17725"
       fx="205.75186"
       fy="100.17725"
       r="41.25"
       gradientTransform="matrix(0.14942665,0.99417494,-0.87103584,0.20044697,262.26503,-123.83549)"
       gradientUnits="userSpaceOnUse" />
    <linearGradient
       inkscape:collect="always"
       xlink:href="#linearGradient3955"
       id="linearGradient3961"
       x1="13.088914"
       y1="144.92195"
       x2="53.912876"
       y2="144.06116"
       gradientUnits="userSpaceOnUse" />
    <linearGradient
       inkscape:collect="always"
       xlink:href="#linearGradient3963"
       id="linearGradient3969"
       x1="19.715956"
       y1="88.053978"
       x2="61.789684"
       y2="84.610794"
       gradientUnits="userSpaceOnUse" />
    <linearGradient
       inkscape:collect="always"
       xlink:href="#linearGradient3971"
       id="linearGradient3977"
       x1="33.849514"
       y1="41.413849"
       x2="60.92889"
       y2="32.80587"
       gradientUnits="userSpaceOnUse" />
    <linearGradient
       inkscape:collect="always"
       xlink:href="#linearGradient3847"
       id="linearGradient3837"
       x1="208.87033"
       y1="916.87909"
       x2="210.42519"
       y2="920.62909"
       gradientUnits="userSpaceOnUse"
       gradientTransform="translate(-2.0000041,-4)" />
    <linearGradient
       inkscape:collect="always"
       xlink:href="#linearGradient3847"
       id="linearGradient3841"
       gradientUnits="userSpaceOnUse"
       gradientTransform="translate(44.249996,-3.5)"
       x1="209.12033"
       y1="916.62909"
       x2="210.67519"
       y2="920.62909" />
    <linearGradient
       inkscape:collect="always"
       xlink:href="#linearGradient3939"
       id="linearGradient3862"
       x1="84.370895"
       y1="1009.9601"
       x2="97.662605"
       y2="1009.9601"
       gradientUnits="userSpaceOnUse"
       gradientTransform="translate(10,0)" />
    <linearGradient
       inkscape:collect="always"
       xlink:href="#linearGradient3939"
       id="linearGradient3870"
       x1="65.180069"
       y1="1012.625"
       x2="80"
       y2="1012.625"
       gradientUnits="userSpaceOnUse"
       gradientTransform="translate(10,0)" />
    <linearGradient
       inkscape:collect="always"
       xlink:href="#linearGradient3939"
       id="linearGradient3878"
       x1="139.68011"
       y1="1016.125"
       x2="154.5"
       y2="1016.125"
       gradientUnits="userSpaceOnUse"
       gradientTransform="translate(10,0)" />
    <linearGradient
       inkscape:collect="always"
       xlink:href="#linearGradient3939"
       id="linearGradient3886"
       x1="156.87093"
       y1="1009.4601"
       x2="170.16261"
       y2="1009.4601"
       gradientUnits="userSpaceOnUse"
       gradientTransform="translate(10,0)" />
    <filter
       inkscape:collect="always"
       id="filter3940"
       x="-0.12670808"
       width="1.2534162"
       y="-0.12670808"
       height="1.2534162">
      <feGaussianBlur
         inkscape:collect="always"
         stdDeviation="4.9363356"
         id="feGaussianBlur3942" />
    </filter>
    <radialGradient
       inkscape:collect="always"
       xlink:href="#linearGradient3939"
       id="radialGradient3969"
       gradientUnits="userSpaceOnUse"
       gradientTransform="matrix(0.97152564,-0.94993352,-0.79799149,-0.81613006,70.021313,1153.8302)"
       cx="236.50737"
       cy="45.796669"
       fx="236.50737"
       fy="45.796669"
       r="9.2848387" />
    <radialGradient
       inkscape:collect="always"
       xlink:href="#linearGradient3885"
       id="radialGradient3971"
       gradientUnits="userSpaceOnUse"
       gradientTransform="matrix(0.27195033,1.0296596,-0.90389653,0.2387342,221.2169,-197.42371)"
       cx="233.46516"
       cy="56.690838"
       fx="233.46516"
       fy="56.690838"
       r="9.2848385" />
    <linearGradient
       inkscape:collect="always"
       xlink:href="#linearGradient3893"
       id="linearGradient3973"
       gradientUnits="userSpaceOnUse"
       x1="236.259"
       y1="909.23718"
       x2="234.39014"
       y2="906.23718" />
    <radialGradient
       inkscape:collect="always"
       xlink:href="#linearGradient3847"
       id="radialGradient3975"
       gradientUnits="userSpaceOnUse"
       gradientTransform="matrix(0.60846561,0.81481481,-0.80124696,0.59833377,170.62193,-175.58138)"
       cx="256.59488"
       cy="94.853523"
       fx="256.59488"
       fy="94.853523"
       r="47.25" />
    <linearGradient
       inkscape:collect="always"
       xlink:href="#linearGradient3861"
       id="linearGradient3978"
       gradientUnits="userSpaceOnUse"
       x1="276.58191"
       y1="86.086212"
       x2="277.39655"
       y2="95.862061" />
    <linearGradient
       inkscape:collect="always"
       xlink:href="#linearGradient3847"
       id="linearGradient3980"
       gradientUnits="userSpaceOnUse"
       gradientTransform="translate(-2.0000041,-4)"
       x1="208.87033"
       y1="916.87909"
       x2="210.42519"
       y2="920.62909" />
    <linearGradient
       inkscape:collect="always"
       xlink:href="#linearGradient3847"
       id="linearGradient3982"
       gradientUnits="userSpaceOnUse"
       gradientTransform="translate(44.249996,-3.5)"
       x1="209.12033"
       y1="916.62909"
       x2="210.67519"
       y2="920.62909" />
    <clipPath
       id="clipPath18">
      <path
         d="m 0,0 2183.73,0 0,912 L 0,912 0,0 z"
         inkscape:connector-curvature="0"
         id="path20" />
    </clipPath>
    <linearGradient
       inkscape:collect="always"
       xlink:href="#linearGradient3099"
       id="linearGradient3105"
       x1="353.1792"
       y1="318.92142"
       x2="615.50238"
       y2="957.62152"
       gradientUnits="userSpaceOnUse" />
    <linearGradient
       inkscape:collect="always"
       xlink:href="#linearGradient3107"
       id="linearGradient3113"
       x1="1532.479"
       y1="289.51685"
       x2="980.422"
       y2="962.43304"
       gradientUnits="userSpaceOnUse" />
    <linearGradient
       inkscape:collect="always"
       xlink:href="#linearGradient3115"
       id="linearGradient3121"
       x1="1831.0226"
       y1="481.88617"
       x2="1508.8146"
       y2="983.72192"
       gradientUnits="userSpaceOnUse" />
    <linearGradient
       inkscape:collect="always"
       xlink:href="#linearGradient3123"
       id="linearGradient3129"
       x1="2036.5265"
       y1="588.21429"
       x2="1864.3799"
       y2="861.94293"
       gradientUnits="userSpaceOnUse" />
  </defs>
  <sodipodi:namedview
     id="base"
     pagecolor="#ffffff"
     bordercolor="#666666"
     borderopacity="1.0"
     inkscape:pageopacity="0.0"
     inkscape:pageshadow="2"
     inkscape:zoom="2"
     inkscape:cx="282.6187"
     inkscape:cy="104.10705"
     inkscape:document-units="px"
     inkscape:current-layer="g16"
     showgrid="false"
     inkscape:window-width="1280"
     inkscape:window-height="752"
     inkscape:window-x="0"
     inkscape:window-y="0"
     inkscape:window-maximized="0" />
  <metadata
     id="metadata7">
    <rdf:RDF>
      <cc:Work
         rdf:about="">
        <dc:format>image/svg+xml</dc:format>
        <dc:type
           rdf:resource="http://purl.org/dc/dcmitype/StillImage" />
        <dc:title />
      </cc:Work>
    </rdf:RDF>
  </metadata>
  <g
     inkscape:label="Ebene 1"
     inkscape:groupmode="layer"
     id="layer1"
     transform="translate(0,-852.36218)">
    <rect
       style="fill:url(#linearGradient3761);fill-rule:evenodd;stroke:#000000;stroke-width:1px;stroke-linecap:butt;stroke-linejoin:miter;stroke-opacity:1;fill-opacity:1"
       id="rect2985"
       width="320"
       height="200"
       x="0.5"
       y="0.50000072"
       ry="14.5"
       transform="translate(0,852.36218)" />
    <path
       sodipodi:nodetypes="ccccc"
       inkscape:connector-curvature="0"
       id="path3847"
       d="m 95.542355,995.5761 c 0.0089,11.8886 -0.679195,21.7572 0,28.3627 8.145285,-4.0662 3.458255,-2.2524 7.967815,0.4052 l 3.28087,-20.6643 c 0.005,-0.1998 -6.33141,-8.1036 -11.248685,-8.1036 z"
       style="font-size:medium;font-style:normal;font-variant:normal;font-weight:normal;font-stretch:normal;text-indent:0;text-align:start;text-decoration:none;line-height:normal;letter-spacing:normal;word-spacing:normal;text-transform:none;direction:ltr;block-progression:tb;writing-mode:lr-tb;text-anchor:start;baseline-shift:baseline;color:#000000;fill:url(#linearGradient3862);fill-opacity:1;fill-rule:nonzero;stroke:#7c7c7c;stroke-width:1.74313128;stroke-opacity:1;marker:none;visibility:visible;display:inline;overflow:visible;enable-background:accumulate;font-family:Sans;-inkscape-font-specification:Sans" />
    <path
       style="font-size:medium;font-style:normal;font-variant:normal;font-weight:normal;font-stretch:normal;text-indent:0;text-align:start;text-decoration:none;line-height:normal;letter-spacing:normal;word-spacing:normal;text-transform:none;direction:ltr;block-progression:tb;writing-mode:lr-tb;text-anchor:start;baseline-shift:baseline;color:#000000;fill:url(#linearGradient3886);fill-opacity:1;fill-rule:nonzero;stroke:#7c7c7c;stroke-width:1.74313128;stroke-opacity:1;marker:none;visibility:visible;display:inline;overflow:visible;enable-background:accumulate;font-family:Sans;-inkscape-font-specification:Sans"
       d="m 178.99117,995.0761 c -0.009,11.8886 0.6792,21.7572 0,28.3627 -8.14528,-4.0662 -3.45825,-2.2524 -7.96781,0.4052 l -3.28087,-20.6643 c -0.004,-0.1998 6.33141,-8.1036 11.24868,-8.1036 z"
       id="path3853"
       inkscape:connector-curvature="0"
       sodipodi:nodetypes="ccccc" />
    <path
       sodipodi:type="arc"
       style="fill:url(#radialGradient3953);fill-opacity:1;stroke:#7c7c7c;stroke-opacity:1"
       id="path3915"
       sodipodi:cx="218.25"
       sodipodi:cy="117.25"
       sodipodi:rx="41.25"
       sodipodi:ry="39.75"
       d="M 259.5,117.25 C 259.5,139.20332 241.03175,157 218.25,157 195.46825,157 177,139.20332 177,117.25 177,95.296681 195.46825,77.5 218.25,77.5 c 22.78175,0 41.25,17.796681 41.25,39.75 z"
       transform="matrix(1.9398807,0,0,1.5677467,-290.96941,767.87339)" />
    <path
       style="font-size:medium;font-style:normal;font-variant:normal;font-weight:normal;font-stretch:normal;text-indent:0;text-align:start;text-decoration:none;line-height:normal;letter-spacing:normal;word-spacing:normal;text-transform:none;direction:ltr;block-progression:tb;writing-mode:lr-tb;text-anchor:start;baseline-shift:baseline;color:#000000;fill:url(#linearGradient3870);fill-opacity:1;fill-rule:nonzero;stroke:#7c7c7c;stroke-width:2.06195903;stroke-opacity:1;marker:none;visibility:visible;display:inline;overflow:visible;enable-background:accumulate;font-family:Sans;-inkscape-font-specification:Sans"
       d="m 76.542355,994.40598 c 0.0098,15.05832 -0.750321,27.55812 0,35.92482 8.998273,-5.1504 3.820404,-2.853 8.802221,0.5132 l 3.624444,-26.1738 c 0.0048,-0.2531 -6.994449,-10.26422 -12.426665,-10.26422 z"
       id="rect3811"
       inkscape:connector-curvature="0"
       sodipodi:nodetypes="ccccc" />
    <path
       style="fill:none;stroke:#c67c7c;stroke-width:2;stroke-linecap:butt;stroke-linejoin:miter;stroke-miterlimit:4;stroke-opacity:1;stroke-dasharray:none"
       d="m 52.724181,941.19828 c -21.717061,1.81826 -15.482564,-13.60729 -7.364656,-10.06135 8.117908,3.54594 0.343489,6.7076 -1.489737,5.9716 -5.208466,-2.33699 -8.593969,-8.4716 -8.593969,-8.4716"
       id="path3041"
       inkscape:connector-curvature="0"
       sodipodi:nodetypes="czcc" />
    <path
       sodipodi:nodetypes="ccccc"
       inkscape:connector-curvature="0"
       id="path3849"
       d="m 151.04236,997.90598 c 0.01,15.05832 -0.75033,27.55812 0,35.92482 8.99827,-5.1504 3.8204,-2.853 8.80222,0.5132 l 3.62444,-26.1738 c 0.005,-0.2531 -6.99445,-10.26422 -12.42666,-10.26422 z"
       style="font-size:medium;font-style:normal;font-variant:normal;font-weight:normal;font-stretch:normal;text-indent:0;text-align:start;text-decoration:none;line-height:normal;letter-spacing:normal;word-spacing:normal;text-transform:none;direction:ltr;block-progression:tb;writing-mode:lr-tb;text-anchor:start;baseline-shift:baseline;color:#000000;fill:url(#linearGradient3878);fill-opacity:1;fill-rule:nonzero;stroke:#7c7c7c;stroke-width:2.06195903;stroke-opacity:1;marker:none;visibility:visible;display:inline;overflow:visible;enable-background:accumulate;font-family:Sans;-inkscape-font-specification:Sans" />
    <g
       id="g3944"
       transform="matrix(0.90550249,0,0,0.90550249,18.38454,83.026296)">
      <path
         style="fill:url(#radialGradient3969);fill-opacity:1;stroke:#7c7c7c;stroke-width:1.41700184px;stroke-linecap:butt;stroke-linejoin:miter;stroke-opacity:1"
         d="m 252.84416,890.40504 c 0,0 8.61831,-9.03606 22.32629,-11.08827 1.54407,12.03475 2.29935,15.46445 -3.0418,29.67625"
         id="path3925"
         inkscape:connector-curvature="0"
         sodipodi:nodetypes="ccc" />
      <g
         style="stroke:#7c7c7c;stroke-opacity:1"
         transform="matrix(1.4154723,-0.06581975,0.06581975,1.4154723,-207.2985,-381.89399)"
         id="g3903">
        <path
           style="fill:url(#radialGradient3971);fill-opacity:1;stroke:#7c7c7c;stroke-width:1px;stroke-linecap:butt;stroke-linejoin:miter;stroke-opacity:1"
           d="m 248,58.75 c 0,0 -3.58049,-6.914706 -8.5,-7.5 -2.86109,0.692255 -5.40431,0.84282 -9,2.25 -0.61123,5.674576 3,16.25 3,16.25"
           id="path3879"
           inkscape:connector-curvature="0"
           transform="translate(0,852.36218)"
           sodipodi:nodetypes="cccc" />
        <path
           style="fill:url(#linearGradient3973);fill-opacity:1;stroke:#7c7c7c;stroke-width:0.9592551px;stroke-linecap:butt;stroke-linejoin:miter;stroke-opacity:1"
           d="m 230.73864,905.69173 c 0,0 0.52084,3.93501 5.30991,5.61935 4.4193,-3.93296 3.46281,-7.71026 3.46281,-7.71026 z"
           id="path3883"
           inkscape:connector-curvature="0"
           sodipodi:nodetypes="cccc" />
      </g>
      <path
         transform="matrix(1.1758099,0,0,1.1758099,-87.643855,822.17972)"
         d="m 316,100.75 c 0,25.81931 -20.93069,46.75 -46.75,46.75 -25.81931,0 -46.75,-20.93069 -46.75,-46.75 C 222.5,74.930688 243.43069,54 269.25,54 295.06931,54 316,74.930688 316,100.75 z"
         sodipodi:ry="46.75"
         sodipodi:rx="46.75"
         sodipodi:cy="100.75"
         sodipodi:cx="269.25"
         id="path3077"
         style="fill:url(#radialGradient3975);fill-opacity:1;fill-rule:evenodd;stroke:#7c7d80;stroke-width:1px;stroke-linecap:butt;stroke-linejoin:miter;stroke-opacity:1"
         sodipodi:type="arc" />
      <path
         transform="matrix(0.3693634,0,0,0.3693634,130.90543,910.29814)"
         d="m 316,100.75 c 0,25.81931 -20.93069,46.75 -46.75,46.75 -25.81931,0 -46.75,-20.93069 -46.75,-46.75 C 222.5,74.930688 243.43069,54 269.25,54 295.06931,54 316,74.930688 316,100.75 z"
         sodipodi:ry="46.75"
         sodipodi:rx="46.75"
         sodipodi:cy="100.75"
         sodipodi:cx="269.25"
         id="path3900"
         style="fill:#bf5e4a;fill-opacity:1;fill-rule:evenodd;stroke:none;filter:url(#filter3940)"
         sodipodi:type="arc" />
      <path
         sodipodi:type="arc"
         style="fill:url(#linearGradient3978);fill-opacity:1;fill-rule:evenodd;stroke:#7c7c7c;stroke-width:1px;stroke-linecap:butt;stroke-linejoin:miter;stroke-opacity:1"
         id="path3855"
         sodipodi:cx="269.25"
         sodipodi:cy="100.75"
         sodipodi:rx="46.75"
         sodipodi:ry="46.75"
         d="m 316,100.75 c 0,25.81931 -20.93069,46.75 -46.75,46.75 -25.81931,0 -46.75,-20.93069 -46.75,-46.75 C 222.5,74.930688 243.43069,54 269.25,54 295.06931,54 316,74.930688 316,100.75 z"
         transform="matrix(0.36083057,0,0,0.36083057,133.70289,909.65782)" />
      <path
         transform="matrix(0.72710282,0,0,0.72710282,37.627322,871.59973)"
         d="m 261,103 c 0,2.76142 -2.23858,5 -5,5 -2.76142,0 -5,-2.23858 -5,-5 0,-2.76142 2.23858,-5 5,-5 2.76142,0 5,2.23858 5,5 z"
         sodipodi:ry="5"
         sodipodi:rx="5"
         sodipodi:cy="103"
         sodipodi:cx="256"
         id="path3867"
         style="fill:#000000;fill-opacity:1"
         sodipodi:type="arc" />
      <path
         sodipodi:type="arc"
         style="fill:#000000;fill-opacity:1"
         id="path3877"
         sodipodi:cx="256"
         sodipodi:cy="103"
         sodipodi:rx="5"
         sodipodi:ry="5"
         d="m 261,103 c 0,2.76142 -2.23858,5 -5,5 -2.76142,0 -5,-2.23858 -5,-5 0,-2.76142 2.23858,-5 5,-5 2.76142,0 5,2.23858 5,5 z"
         transform="matrix(0.72710282,0,0,0.72710282,51.324363,871.59973)" />
      <path
         sodipodi:nodetypes="czccc"
         inkscape:connector-curvature="0"
         id="path3917"
         d="m 198.34063,964.47406 c 30.76801,23.98699 38.78727,19.51127 47.56171,18.0266 8.77441,-1.48467 8.15433,-13.00457 8.15433,-13.00457 0,0 -4.53564,1.76856 -17.19314,2.83155 -9.8607,0.50844 -24.12261,-0.53723 -38.5229,-7.85358 z"
         style="fill:#ffffff;fill-opacity:1;stroke:#000000;stroke-width:1.32043791px;stroke-linecap:butt;stroke-linejoin:miter;stroke-opacity:1" />
      <path
         transform="matrix(0.98475482,0,0,1.1758099,-3.0915158,829.53426)"
         d="m 223,76.75 c 0,3.175637 -3.46979,5.75 -7.75,5.75 -4.28021,0 -7.75,-2.574363 -7.75,-5.75 0,-3.175637 3.46979,-5.75 7.75,-5.75 4.28021,0 7.75,2.574363 7.75,5.75 z"
         sodipodi:ry="5.75"
         sodipodi:rx="7.75"
         sodipodi:cy="76.75"
         sodipodi:cx="215.25"
         id="path3919"
         style="fill:#9ea1c0;fill-opacity:1"
         sodipodi:type="arc" />
      <path
         sodipodi:type="arc"
         style="fill:#9ea1c0;fill-opacity:1"
         id="path3921"
         sodipodi:cx="215.25"
         sodipodi:cy="76.75"
         sodipodi:rx="7.75"
         sodipodi:ry="5.75"
         d="m 223,76.75 c 0,3.175637 -3.46979,5.75 -7.75,5.75 -4.28021,0 -7.75,-2.574363 -7.75,-5.75 0,-3.175637 3.46979,-5.75 7.75,-5.75 4.28021,0 7.75,2.574363 7.75,5.75 z"
         transform="matrix(0.98475482,0,0,1.1758099,43.075127,830.12216)" />
      <path
         sodipodi:type="arc"
         style="fill:#000000;fill-opacity:1"
         id="path3825"
         sodipodi:cx="215.25"
         sodipodi:cy="76.75"
         sodipodi:rx="7.75"
         sodipodi:ry="5.75"
         d="m 223,76.75 c 0,3.175637 -3.46979,5.75 -7.75,5.75 -4.28021,0 -7.75,-2.574363 -7.75,-5.75 0,-3.175637 3.46979,-5.75 7.75,-5.75 4.28021,0 7.75,2.574363 7.75,5.75 z"
         transform="matrix(0.54976391,0,0,0.65642516,90.540283,869.41057)" />
      <path
         transform="matrix(0.59765805,0,0,0.71361138,126.23107,865.52153)"
         d="m 223,76.75 c 0,3.175637 -3.46979,5.75 -7.75,5.75 -4.28021,0 -7.75,-2.574363 -7.75,-5.75 0,-3.175637 3.46979,-5.75 7.75,-5.75 4.28021,0 7.75,2.574363 7.75,5.75 z"
         sodipodi:ry="5.75"
         sodipodi:rx="7.75"
         sodipodi:cy="76.75"
         sodipodi:cx="215.25"
         id="path3827"
         style="fill:#000000;fill-opacity:1"
         sodipodi:type="arc" />
      <path
         sodipodi:nodetypes="cczc"
         inkscape:connector-curvature="0"
         id="path3829"
         d="m 201.12033,918.73895 c 0,0 8.38817,-6.47849 15.55486,0.73922 0.66669,-4.28229 -1.87874,-8.05111 -7.85825,-7.12375 -5.97952,0.92735 -7.69661,6.38453 -7.69661,6.38453 z"
         style="fill:url(#linearGradient3980);fill-opacity:1;stroke:#000000;stroke-width:1px;stroke-linecap:butt;stroke-linejoin:miter;stroke-opacity:1" />
      <path
         style="fill:url(#linearGradient3982);fill-opacity:1;stroke:#000000;stroke-width:1px;stroke-linecap:butt;stroke-linejoin:miter;stroke-opacity:1"
         d="m 247.37033,919.23895 c 0,0 8.38817,-6.72849 15.55486,0.73922 0.66669,-4.28229 -1.87874,-8.05111 -7.85825,-7.12375 -5.97952,0.92735 -7.69661,6.38453 -7.69661,6.38453 z"
         id="path3839"
         inkscape:connector-curvature="0"
         sodipodi:nodetypes="cczc" />
      <path
         transform="matrix(0.33333333,0,0,0.33333333,137.58333,893.77885)"
         d="m 212,74 c 0,1.380712 -1.00736,2.5 -2.25,2.5 -1.24264,0 -2.25,-1.119288 -2.25,-2.5 0,-1.380712 1.00736,-2.5 2.25,-2.5 1.24264,0 2.25,1.119288 2.25,2.5 z"
         sodipodi:ry="2.5"
         sodipodi:rx="2.25"
         sodipodi:cy="74"
         sodipodi:cx="209.75"
         id="path3843"
         style="fill:#fffffe;fill-opacity:1;stroke:none"
         sodipodi:type="arc" />
      <path
         sodipodi:type="arc"
         style="fill:#fffffe;fill-opacity:1;stroke:none"
         id="path3845"
         sodipodi:cx="209.75"
         sodipodi:cy="74"
         sodipodi:rx="2.25"
         sodipodi:ry="2.5"
         d="m 212,74 c 0,1.380712 -1.00736,2.5 -2.25,2.5 -1.24264,0 -2.25,-1.119288 -2.25,-2.5 0,-1.380712 1.00736,-2.5 2.25,-2.5 1.24264,0 2.25,1.119288 2.25,2.5 z"
         transform="matrix(0.33333333,0,0,0.33333333,183.58333,894.27885)" />
      <path
         inkscape:connector-curvature="0"
         id="path3890"
         d="m 218,971.86218 0,5"
         style="fill:none;stroke:#000000;stroke-width:1px;stroke-linecap:butt;stroke-linejoin:miter;stroke-opacity:1" />
      <path
         inkscape:connector-curvature="0"
         id="path3892"
         d="m 228,971.86218 -1,9"
         style="fill:none;stroke:#000000;stroke-width:1px;stroke-linecap:butt;stroke-linejoin:miter;stroke-opacity:1" />
      <path
         sodipodi:nodetypes="cc"
         inkscape:connector-curvature="0"
         id="path3894"
         d="m 238,972.36218 -1.5,11"
         style="fill:none;stroke:#000000;stroke-width:1px;stroke-linecap:butt;stroke-linejoin:miter;stroke-opacity:1" />
      <path
         inkscape:connector-curvature="0"
         id="path3896"
         d="m 247,971.36218 -1,10.5"
         style="fill:none;stroke:#000000;stroke-width:1px;stroke-linecap:butt;stroke-linejoin:miter;stroke-opacity:1" />
      <path
         sodipodi:nodetypes="cc"
         inkscape:connector-curvature="0"
         id="path3898"
         d="m 203.5,967.86218 c 22.83333,12.5 39.16667,11 49.5,7"
         style="fill:none;stroke:#000000;stroke-width:1px;stroke-linecap:butt;stroke-linejoin:miter;stroke-opacity:1" />
    </g>
    <g
       transform="matrix(0.43839041,0,0,-0.43839041,75.516964,970.84339)"
       id="g10">
      <g
         transform="scale(0.1,0.1)"
         id="g12">
        <g
           id="g14">
          <g
             clip-path="url(#clipPath18)"
             id="g16">
            <path
               d="m 1308.73,601.652 c -47.88,0 -83.54,-23.511 -83.54,-80.093 0,-42.633 23.5,-72.227 80.96,-72.227 48.7,0 81.78,28.695 81.78,73.988 0,51.328 -29.6,78.332 -79.2,78.332 z M 1213,202.133 c -11.33,-13.906 -22.62,-28.68 -22.62,-46.117 0,-34.786 44.36,-45.254 105.3,-45.254 50.48,0 119.24,3.535 119.24,50.468 0,27.895 -33.08,29.622 -74.88,32.243 l -127.04,8.66 z m 257.61,396.89 c 15.64,-20.023 32.2,-47.878 32.2,-87.91 0,-96.601 -75.72,-153.164 -185.35,-153.164 -27.88,0 -53.12,3.473 -68.77,7.817 l -28.73,-46.118 85.28,-5.21 c 150.58,-9.594 239.32,-13.954 239.32,-129.661 0,-100.109 -87.88,-156.652 -239.32,-156.652 -157.52,0 -217.57,40.0391 -217.57,108.781 0,39.18 17.41,60.02 47.87,88.782 -28.73,12.144 -38.29,33.89 -38.29,57.398 0,19.16 9.56,36.562 25.25,53.109 15.66,16.52 33.06,33.078 53.95,52.219 -42.64,20.883 -74.85,66.141 -74.85,130.555 0,100.074 66.15,168.804 199.28,168.804 37.43,0 60.07,-3.445 80.09,-8.699 l 169.72,0 0,-73.957 -80.08,-6.094"
               inkscape:connector-curvature="0"
               id="path22"
               style="fill:url(#linearGradient3113);fill-opacity:1;fill-rule:nonzero;stroke:none" />
            <path
               d="m 1703.8,757.168 c -49.62,0 -78.33,28.746 -78.33,78.371 0,49.563 28.71,76.563 78.33,76.563 50.48,0 79.2,-27 79.2,-76.563 0,-49.625 -28.72,-78.371 -79.2,-78.371 z m -112.29,-523.012 0,68.719 44.4,6.074 c 12.19,1.766 13.92,4.356 13.92,17.442 l 0,255.867 c 0,9.554 -2.6,15.672 -11.33,18.262 l -46.99,16.55 9.57,70.469 180.17,0 0,-361.148 c 0,-13.95 0.84,-15.676 13.93,-17.442 l 44.39,-6.074 0,-68.719 -248.06,0"
               inkscape:connector-curvature="0"
               id="path24"
               style="fill:url(#linearGradient3121);fill-opacity:1;fill-rule:nonzero;stroke:none" />
            <path
               d="m 2183.73,267.895 c -37.44,-18.254 -92.26,-34.793 -141.89,-34.793 -103.56,0 -142.71,41.734 -142.71,140.121 l 0,228.004 c 0,5.211 0,8.707 -6.99,8.707 l -60.91,0 0,77.453 c 76.61,8.726 107.05,47.027 116.62,141.886 l 82.69,0 0,-123.625 c 0,-6.07 0,-8.699 6.97,-8.699 l 122.7,0 0,-87.015 -129.67,0 0,-207.989 c 0,-51.355 12.2,-71.355 59.17,-71.355 24.4,0 49.61,6.074 70.5,13.914 l 23.52,-76.609"
               inkscape:connector-curvature="0"
               id="path26"
               style="fill:url(#linearGradient3129);fill-opacity:1;fill-rule:nonzero;stroke:none" />
            <path
               d="m 894.215,496.285 -397.938,397.91 c -22.898,22.918 -60.066,22.918 -82.996,0 L 330.652,811.559 435.469,706.738 c 24.367,8.227 52.297,2.711 71.711,-16.707 19.515,-19.539 24.992,-47.707 16.558,-72.156 l 101.024,-101.02 c 24.441,8.422 52.64,2.981 72.156,-16.57 27.285,-27.277 27.285,-71.476 0,-98.762 -27.289,-27.293 -71.488,-27.293 -98.789,0 -20.516,20.532 -25.59,50.676 -15.199,75.954 l -94.215,94.218 -0.008,-247.929 c 6.652,-3.293 12.93,-7.688 18.473,-13.207 27.277,-27.274 27.277,-71.465 0,-98.782 -27.285,-27.273 -71.504,-27.273 -98.762,0 -27.281,27.317 -27.281,71.508 0,98.782 6.742,6.73 14.543,11.824 22.867,15.238 l 0,250.23 c -8.324,3.403 -16.113,8.461 -22.867,15.239 -20.664,20.648 -25.641,50.976 -15.043,76.351 L 290.051,770.961 17.1992,498.125 c -22.92576,-22.937 -22.92576,-60.105 0,-83.027 L 415.133,17.1875 c 22.91,-22.91797 60.066,-22.91797 83.008,0 L 894.215,413.254 c 22.918,22.93 22.918,60.109 0,83.031"
               inkscape:connector-curvature="0"
               id="path28"
               style="fill:url(#linearGradient3105);fill-opacity:1;fill-rule:nonzero;stroke:none" />
          </g>
        </g>
      </g>
    </g>
  </g>
</svg>
