<?xml version="1.0" encoding="UTF-8" standalone="no"?>
<!-- Created with Inkscape (http://www.inkscape.org/) -->

<svg
   xmlns:dc="http://purl.org/dc/elements/1.1/"
   xmlns:cc="http://creativecommons.org/ns#"
   xmlns:rdf="http://www.w3.org/1999/02/22-rdf-syntax-ns#"
   xmlns:svg="http://www.w3.org/2000/svg"
   xmlns="http://www.w3.org/2000/svg"
   xmlns:xlink="http://www.w3.org/1999/xlink"
   xmlns:sodipodi="http://sodipodi.sourceforge.net/DTD/sodipodi-0.dtd"
   xmlns:inkscape="http://www.inkscape.org/namespaces/inkscape"
   width="320"
   height="200"
   id="svg2"
   version="1.1"
   inkscape:version="0.48.2 r9819"
   sodipodi:docname="splash.svg"
   inkscape:export-filename="/Volumes/Daten/Projects/MsPiggit/core/resources/images/splash.png"
   inkscape:export-xdpi="90"
   inkscape:export-ydpi="90">
  <defs
     id="defs4">
    <linearGradient
       id="linearGradient3971">
      <stop
         style="stop-color:#40bf4c;stop-opacity:0.2521739;"
         offset="0"
         id="stop3973" />
      <stop
         style="stop-color:#40bf4c;stop-opacity:1;"
         offset="1"
         id="stop3975" />
    </linearGradient>
    <linearGradient
       id="linearGradient3963">
      <stop
         style="stop-color:#d8382d;stop-opacity:0.2521739;"
         offset="0"
         id="stop3965" />
      <stop
         style="stop-color:#d8382d;stop-opacity:1;"
         offset="1"
         id="stop3967" />
    </linearGradient>
    <linearGradient
       id="linearGradient3955">
      <stop
         style="stop-color:#666666;stop-opacity:0.42173913;"
         offset="0"
         id="stop3957" />
      <stop
         style="stop-color:#666666;stop-opacity:1;"
         offset="1"
         id="stop3959" />
    </linearGradient>
    <linearGradient
       id="linearGradient3939">
      <stop
         id="stop3941"
         offset="0"
         style="stop-color:#cf7853;stop-opacity:1;" />
      <stop
         id="stop3943"
         offset="1"
         style="stop-color:#ffafa1;stop-opacity:1;" />
    </linearGradient>
    <linearGradient
       id="linearGradient3893">
      <stop
         style="stop-color:#ffafa1;stop-opacity:1;"
         offset="0"
         id="stop3895" />
      <stop
         style="stop-color:#ffead6;stop-opacity:1;"
         offset="1"
         id="stop3897" />
    </linearGradient>
    <linearGradient
       id="linearGradient3885">
      <stop
         style="stop-color:#000000;stop-opacity:1;"
         offset="0"
         id="stop3887" />
      <stop
         style="stop-color:#ffafa1;stop-opacity:1;"
         offset="1"
         id="stop3889" />
    </linearGradient>
    <linearGradient
       id="linearGradient3861">
      <stop
         id="stop3863"
         offset="0"
         style="stop-color:#ff97ae;stop-opacity:1;" />
      <stop
         id="stop3865"
         offset="1"
         style="stop-color:#ffafa1;stop-opacity:1;" />
    </linearGradient>
    <linearGradient
       id="linearGradient3847">
      <stop
         style="stop-color:#ffe5ae;stop-opacity:1;"
         offset="0"
         id="stop3849" />
      <stop
         style="stop-color:#ffafa1;stop-opacity:1;"
         offset="1"
         id="stop3851" />
    </linearGradient>
    <linearGradient
       id="linearGradient3755">
      <stop
         style="stop-color:#08bc4b;stop-opacity:1;"
         offset="0"
         id="stop3757" />
      <stop
         style="stop-color:#001c50;stop-opacity:1;"
         offset="1"
         id="stop3759" />
    </linearGradient>
    <linearGradient
       inkscape:collect="always"
       xlink:href="#linearGradient3755"
       id="linearGradient3761"
       x1="152"
       y1="132.6468"
       x2="152"
       y2="26.976702"
       gradientUnits="userSpaceOnUse" />
    <radialGradient
       inkscape:collect="always"
       xlink:href="#linearGradient3847"
       id="radialGradient3853"
       cx="256.59488"
       cy="94.853523"
       fx="256.59488"
       fy="94.853523"
       r="47.25"
       gradientUnits="userSpaceOnUse"
       gradientTransform="matrix(0.60846561,0.81481481,-0.80124696,0.59833377,170.62193,-175.58138)" />
    <linearGradient
       inkscape:collect="always"
       xlink:href="#linearGradient3861"
       id="linearGradient3859"
       x1="276.58191"
       y1="86.086212"
       x2="277.39655"
       y2="95.862061"
       gradientUnits="userSpaceOnUse" />
    <radialGradient
       inkscape:collect="always"
       xlink:href="#linearGradient3885"
       id="radialGradient3911"
       gradientUnits="userSpaceOnUse"
       gradientTransform="matrix(0.27195033,1.0296596,-0.90389653,0.2387342,221.2169,-197.42371)"
       cx="233.46516"
       cy="56.690838"
       fx="233.46516"
       fy="56.690838"
       r="9.2848385" />
    <linearGradient
       inkscape:collect="always"
       xlink:href="#linearGradient3893"
       id="linearGradient3913"
       gradientUnits="userSpaceOnUse"
       x1="236.259"
       y1="909.23718"
       x2="234.39014"
       y2="906.23718" />
    <radialGradient
       inkscape:collect="always"
       xlink:href="#linearGradient3939"
       id="radialGradient3945"
       gradientUnits="userSpaceOnUse"
       gradientTransform="matrix(0.97152564,-0.94993352,-0.79799149,-0.81613006,70.021313,1153.8302)"
       cx="236.50737"
       cy="45.796669"
       fx="236.50737"
       fy="45.796669"
       r="9.2848387" />
    <radialGradient
       inkscape:collect="always"
       xlink:href="#linearGradient3847"
       id="radialGradient3953"
       cx="205.75186"
       cy="100.17725"
       fx="205.75186"
       fy="100.17725"
       r="41.25"
       gradientTransform="matrix(0.14942665,0.99417494,-0.87103584,0.20044697,262.26503,-123.83549)"
       gradientUnits="userSpaceOnUse" />
    <linearGradient
       inkscape:collect="always"
       xlink:href="#linearGradient3955"
       id="linearGradient3961"
       x1="13.088914"
       y1="144.92195"
       x2="53.912876"
       y2="144.06116"
       gradientUnits="userSpaceOnUse" />
    <linearGradient
       inkscape:collect="always"
       xlink:href="#linearGradient3963"
       id="linearGradient3969"
       x1="19.715956"
       y1="88.053978"
       x2="61.789684"
       y2="84.610794"
       gradientUnits="userSpaceOnUse" />
    <linearGradient
       inkscape:collect="always"
       xlink:href="#linearGradient3971"
       id="linearGradient3977"
       x1="33.849514"
       y1="41.413849"
       x2="60.92889"
       y2="32.80587"
       gradientUnits="userSpaceOnUse" />
    <linearGradient
       inkscape:collect="always"
       xlink:href="#linearGradient3847"
       id="linearGradient3837"
       x1="208.87033"
       y1="916.87909"
       x2="210.42519"
       y2="920.62909"
       gradientUnits="userSpaceOnUse"
       gradientTransform="translate(-2.0000041,-4)" />
    <linearGradient
       inkscape:collect="always"
       xlink:href="#linearGradient3847"
       id="linearGradient3841"
       gradientUnits="userSpaceOnUse"
       gradientTransform="translate(44.249996,-3.5)"
       x1="209.12033"
       y1="916.62909"
       x2="210.67519"
       y2="920.62909" />
    <linearGradient
       inkscape:collect="always"
       xlink:href="#linearGradient3939"
       id="linearGradient3862"
       x1="84.370895"
       y1="1009.9601"
       x2="97.662605"
       y2="1009.9601"
       gradientUnits="userSpaceOnUse"
       gradientTransform="translate(10,0)" />
    <linearGradient
       inkscape:collect="always"
       xlink:href="#linearGradient3939"
       id="linearGradient3870"
       x1="65.180069"
       y1="1012.625"
       x2="80"
       y2="1012.625"
       gradientUnits="userSpaceOnUse"
       gradientTransform="translate(10,0)" />
    <linearGradient
       inkscape:collect="always"
       xlink:href="#linearGradient3939"
       id="linearGradient3878"
       x1="139.68011"
       y1="1016.125"
       x2="154.5"
       y2="1016.125"
       gradientUnits="userSpaceOnUse"
       gradientTransform="translate(10,0)" />
    <linearGradient
       inkscape:collect="always"
       xlink:href="#linearGradient3939"
       id="linearGradient3886"
       x1="156.87093"
       y1="1009.4601"
       x2="170.16261"
       y2="1009.4601"
       gradientUnits="userSpaceOnUse"
       gradientTransform="translate(10,0)" />
    <filter
       inkscape:collect="always"
       id="filter3940"
       x="-0.12670808"
       width="1.2534162"
       y="-0.12670808"
       height="1.2534162">
      <feGaussianBlur
         inkscape:collect="always"
         stdDeviation="4.9363356"
         id="feGaussianBlur3942" />
    </filter>
    <radialGradient
       inkscape:collect="always"
       xlink:href="#linearGradient3939"
       id="radialGradient3969"
       gradientUnits="userSpaceOnUse"
       gradientTransform="matrix(0.97152564,-0.94993352,-0.79799149,-0.81613006,70.021313,1153.8302)"
       cx="236.50737"
       cy="45.796669"
       fx="236.50737"
       fy="45.796669"
       r="9.2848387" />
    <radialGradient
       inkscape:collect="always"
       xlink:href="#linearGradient3885"
       id="radialGradient3971"
       gradientUnits="userSpaceOnUse"
       gradientTransform="matrix(0.27195033,1.0296596,-0.90389653,0.2387342,221.2169,-197.42371)"
       cx="233.46516"
       cy="56.690838"
       fx="233.46516"
       fy="56.690838"
       r="9.2848385" />
    <linearGradient
       inkscape:collect="always"
       xlink:href="#linearGradient3893"
       id="linearGradient3973"
       gradientUnits="userSpaceOnUse"
       x1="236.259"
       y1="909.23718"
       x2="234.39014"
       y2="906.23718" />
    <radialGradient
       inkscape:collect="always"
       xlink:href="#linearGradient3847"
       id="radialGradient3975"
       gradientUnits="userSpaceOnUse"
       gradientTransform="matrix(0.60846561,0.81481481,-0.80124696,0.59833377,170.62193,-175.58138)"
       cx="256.59488"
       cy="94.853523"
       fx="256.59488"
       fy="94.853523"
       r="47.25" />
    <linearGradient
       inkscape:collect="always"
       xlink:href="#linearGradient3861"
       id="linearGradient3978"
       gradientUnits="userSpaceOnUse"
       x1="276.58191"
       y1="86.086212"
       x2="277.39655"
       y2="95.862061" />
    <linearGradient
       inkscape:collect="always"
       xlink:href="#linearGradient3847"
       id="linearGradient3980"
       gradientUnits="userSpaceOnUse"
       gradientTransform="translate(-2.0000041,-4)"
       x1="208.87033"
       y1="916.87909"
       x2="210.42519"
       y2="920.62909" />
    <linearGradient
       inkscape:collect="always"
       xlink:href="#linearGradient3847"
       id="linearGradient3982"
       gradientUnits="userSpaceOnUse"
       gradientTransform="translate(44.249996,-3.5)"
       x1="209.12033"
       y1="916.62909"
       x2="210.67519"
       y2="920.62909" />
  </defs>
  <sodipodi:namedview
     id="base"
     pagecolor="#ffffff"
     bordercolor="#666666"
     borderopacity="1.0"
     inkscape:pageopacity="0.0"
     inkscape:pageshadow="2"
     inkscape:zoom="2"
     inkscape:cx="282.6187"
     inkscape:cy="104.10705"
     inkscape:document-units="px"
     inkscape:current-layer="layer1"
     showgrid="false"
     inkscape:window-width="1280"
     inkscape:window-height="712"
     inkscape:window-x="0"
     inkscape:window-y="0"
     inkscape:window-maximized="1" />
  <metadata
     id="metadata7">
    <rdf:RDF>
      <cc:Work
         rdf:about="">
        <dc:format>image/svg+xml</dc:format>
        <dc:type
           rdf:resource="http://purl.org/dc/dcmitype/StillImage" />
        <dc:title></dc:title>
      </cc:Work>
    </rdf:RDF>
  </metadata>
  <g
     inkscape:label="Ebene 1"
     inkscape:groupmode="layer"
     id="layer1"
     transform="translate(0,-852.36218)">
    <rect
       style="fill:url(#linearGradient3761);fill-rule:evenodd;stroke:#000000;stroke-width:1px;stroke-linecap:butt;stroke-linejoin:miter;stroke-opacity:1;fill-opacity:1"
       id="rect2985"
       width="320"
       height="200"
       x="0.5"
       y="0.50000072"
       ry="14.5"
       transform="translate(0,852.36218)" />
    <path
       sodipodi:nodetypes="ccccc"
       inkscape:connector-curvature="0"
       id="path3847"
       d="m 95.542355,995.5761 c 0.0089,11.8886 -0.679195,21.7572 0,28.3627 8.145285,-4.0662 3.458255,-2.2524 7.967815,0.4052 l 3.28087,-20.6643 c 0.005,-0.1998 -6.33141,-8.1036 -11.248685,-8.1036 z"
       style="font-size:medium;font-style:normal;font-variant:normal;font-weight:normal;font-stretch:normal;text-indent:0;text-align:start;text-decoration:none;line-height:normal;letter-spacing:normal;word-spacing:normal;text-transform:none;direction:ltr;block-progression:tb;writing-mode:lr-tb;text-anchor:start;baseline-shift:baseline;color:#000000;fill:url(#linearGradient3862);fill-opacity:1;fill-rule:nonzero;stroke:#7c7c7c;stroke-width:1.74313128;stroke-opacity:1;marker:none;visibility:visible;display:inline;overflow:visible;enable-background:accumulate;font-family:Sans;-inkscape-font-specification:Sans" />
    <path
       style="font-size:medium;font-style:normal;font-variant:normal;font-weight:normal;font-stretch:normal;text-indent:0;text-align:start;text-decoration:none;line-height:normal;letter-spacing:normal;word-spacing:normal;text-transform:none;direction:ltr;block-progression:tb;writing-mode:lr-tb;text-anchor:start;baseline-shift:baseline;color:#000000;fill:url(#linearGradient3886);fill-opacity:1;fill-rule:nonzero;stroke:#7c7c7c;stroke-width:1.74313128;stroke-opacity:1;marker:none;visibility:visible;display:inline;overflow:visible;enable-background:accumulate;font-family:Sans;-inkscape-font-specification:Sans"
       d="m 178.99117,995.0761 c -0.009,11.8886 0.6792,21.7572 0,28.3627 -8.14528,-4.0662 -3.45825,-2.2524 -7.96781,0.4052 l -3.28087,-20.6643 c -0.004,-0.1998 6.33141,-8.1036 11.24868,-8.1036 z"
       id="path3853"
       inkscape:connector-curvature="0"
       sodipodi:nodetypes="ccccc" />
    <path
       sodipodi:type="arc"
       style="fill:url(#radialGradient3953);fill-opacity:1;stroke:#7c7c7c;stroke-opacity:1"
       id="path3915"
       sodipodi:cx="218.25"
       sodipodi:cy="117.25"
       sodipodi:rx="41.25"
       sodipodi:ry="39.75"
       d="m 259.5,117.25 a 41.25,39.75 0 1 1 -82.5,0 41.25,39.75 0 1 1 82.5,0 z"
       transform="matrix(1.9398807,0,0,1.5677467,-290.96941,767.87339)" />
    <path
       style="font-size:medium;font-style:normal;font-variant:normal;font-weight:normal;font-stretch:normal;text-indent:0;text-align:start;text-decoration:none;line-height:normal;letter-spacing:normal;word-spacing:normal;text-transform:none;direction:ltr;block-progression:tb;writing-mode:lr-tb;text-anchor:start;baseline-shift:baseline;color:#000000;fill:url(#linearGradient3870);fill-opacity:1;fill-rule:nonzero;stroke:#7c7c7c;stroke-width:2.06195903;stroke-opacity:1;marker:none;visibility:visible;display:inline;overflow:visible;enable-background:accumulate;font-family:Sans;-inkscape-font-specification:Sans"
       d="m 76.542355,994.40598 c 0.0098,15.05832 -0.750321,27.55812 0,35.92482 8.998273,-5.1504 3.820404,-2.853 8.802221,0.5132 l 3.624444,-26.1738 c 0.0048,-0.2531 -6.994449,-10.26422 -12.426665,-10.26422 z"
       id="rect3811"
       inkscape:connector-curvature="0"
       sodipodi:nodetypes="ccccc" />
    <g
       id="g1915"
       transform="matrix(0,0.59926834,-0.59926834,0,175.67311,922.07474)">
      <path
         inkscape:connector-curvature="0"
         style="fill:none"
         d="M 0,94 C 0,62.666667 0,31.333333 0,0 c 32.333333,0 64.666667,0 97,0 0,62.666667 0,125.33333 0,188 -32.333333,0 -64.666667,0 -97,0 0,-31.33333 0,-62.66667 0,-94 z"
         id="path1919" />
      <path
         inkscape:connector-curvature="0"
         style="fill:url(#linearGradient3961);fill-opacity:1"
         d="M 37.664899,184.58554 C 21.895418,182.55403 5.6661972,167.64367 3.3987193,150.1511 1.2240485,135.52701 4.3614628,118.45697 16.450174,108.80568 c 5.302266,-3.61399 12.514873,-7.66322 18.875289,-7.18134 0.190498,6.47429 -0.190498,14.34359 0,20.81788 -7.575785,0.84345 -14.909036,9.45432 -14.756412,17.33851 0.185705,10.26001 4.726475,19.68681 14.597667,22.75753 10.918589,3.67394 23.41726,2.62901 33.524687,-3.47905 8.349716,-6.50563 9.122182,-18.61836 4.755062,-27.83618 C 71.482045,126.15057 67.247476,122.42665 61.5,122.44222 l 0,18.05778 -16.20641,0 0,-38.87566 49.07678,0 0,13.97989 -13.442395,0.12434 c 12.543924,7.15066 13.82967,22.58379 13.186887,33.29078 0.451879,18.39283 -17.71936,33.38895 -35.741983,35.39399 -6.520408,0.48886 -12.037383,0.51459 -20.70798,0.1722 z"
         id="path1927"
         sodipodi:nodetypes="ccccccccccccccccccc" />
      <path
         inkscape:connector-curvature="0"
         style="fill:url(#linearGradient3969);fill-opacity:1"
         d="M 2.6030317,93.90175 2.5,73.5 l 92,0 L 94.489423,94 2.6030317,93.90175 z"
         id="path1925"
         sodipodi:nodetypes="ccccc" />
      <path
         inkscape:connector-curvature="0"
         style="fill:url(#linearGradient3977);fill-opacity:1"
         d="M 37.666668,66.333336 37.666668,44.5 2,44.5 l 0,-19 35.666668,0 0,-24.5 L 59,1 l 0,24.5 35.5,0 0,19 -35.5,0 -0.351683,21.787772 -20.981649,0.04556 z"
         id="path1917"
         sodipodi:nodetypes="ccccccccccccc" />
    </g>
    <path
       style="fill:none;stroke:#c67c7c;stroke-width:2;stroke-linecap:butt;stroke-linejoin:miter;stroke-miterlimit:4;stroke-opacity:1;stroke-dasharray:none"
       d="m 52.724181,941.19828 c -21.717061,1.81826 -15.482564,-13.60729 -7.364656,-10.06135 8.117908,3.54594 0.343489,6.7076 -1.489737,5.9716 -5.208466,-2.33699 -8.593969,-8.4716 -8.593969,-8.4716"
       id="path3041"
       inkscape:connector-curvature="0"
       sodipodi:nodetypes="czcc" />
    <path
       sodipodi:nodetypes="ccccc"
       inkscape:connector-curvature="0"
       id="path3849"
       d="m 151.04236,997.90598 c 0.01,15.05832 -0.75033,27.55812 0,35.92482 8.99827,-5.1504 3.8204,-2.853 8.80222,0.5132 l 3.62444,-26.1738 c 0.005,-0.2531 -6.99445,-10.26422 -12.42666,-10.26422 z"
       style="font-size:medium;font-style:normal;font-variant:normal;font-weight:normal;font-stretch:normal;text-indent:0;text-align:start;text-decoration:none;line-height:normal;letter-spacing:normal;word-spacing:normal;text-transform:none;direction:ltr;block-progression:tb;writing-mode:lr-tb;text-anchor:start;baseline-shift:baseline;color:#000000;fill:url(#linearGradient3878);fill-opacity:1;fill-rule:nonzero;stroke:#7c7c7c;stroke-width:2.06195903;stroke-opacity:1;marker:none;visibility:visible;display:inline;overflow:visible;enable-background:accumulate;font-family:Sans;-inkscape-font-specification:Sans" />
    <g
       id="g3944"
       transform="matrix(0.90550249,0,0,0.90550249,18.38454,83.026296)">
      <path
         style="fill:url(#radialGradient3969);fill-opacity:1;stroke:#7c7c7c;stroke-width:1.41700184px;stroke-linecap:butt;stroke-linejoin:miter;stroke-opacity:1"
         d="m 252.84416,890.40504 c 0,0 8.61831,-9.03606 22.32629,-11.08827 1.54407,12.03475 2.29935,15.46445 -3.0418,29.67625"
         id="path3925"
         inkscape:connector-curvature="0"
         sodipodi:nodetypes="ccc" />
      <g
         style="stroke:#7c7c7c;stroke-opacity:1"
         transform="matrix(1.4154723,-0.06581975,0.06581975,1.4154723,-207.2985,-381.89399)"
         id="g3903">
        <path
           style="fill:url(#radialGradient3971);fill-opacity:1;stroke:#7c7c7c;stroke-width:1px;stroke-linecap:butt;stroke-linejoin:miter;stroke-opacity:1"
           d="m 248,58.75 c 0,0 -3.58049,-6.914706 -8.5,-7.5 -2.86109,0.692255 -5.40431,0.84282 -9,2.25 -0.61123,5.674576 3,16.25 3,16.25"
           id="path3879"
           inkscape:connector-curvature="0"
           transform="translate(0,852.36218)"
           sodipodi:nodetypes="cccc" />
        <path
           style="fill:url(#linearGradient3973);fill-opacity:1;stroke:#7c7c7c;stroke-width:0.9592551px;stroke-linecap:butt;stroke-linejoin:miter;stroke-opacity:1"
           d="m 230.73864,905.69173 c 0,0 0.52084,3.93501 5.30991,5.61935 4.4193,-3.93296 3.46281,-7.71026 3.46281,-7.71026 z"
           id="path3883"
           inkscape:connector-curvature="0"
           sodipodi:nodetypes="cccc" />
      </g>
      <path
         transform="matrix(1.1758099,0,0,1.1758099,-87.643855,822.17972)"
         d="m 316,100.75 c 0,25.81931 -20.93069,46.75 -46.75,46.75 -25.81931,0 -46.75,-20.93069 -46.75,-46.75 C 222.5,74.930688 243.43069,54 269.25,54 295.06931,54 316,74.930688 316,100.75 z"
         sodipodi:ry="46.75"
         sodipodi:rx="46.75"
         sodipodi:cy="100.75"
         sodipodi:cx="269.25"
         id="path3077"
         style="fill:url(#radialGradient3975);fill-opacity:1;fill-rule:evenodd;stroke:#7c7d80;stroke-width:1px;stroke-linecap:butt;stroke-linejoin:miter;stroke-opacity:1"
         sodipodi:type="arc" />
      <path
         transform="matrix(0.3693634,0,0,0.3693634,130.90543,910.29814)"
         d="m 316,100.75 c 0,25.81931 -20.93069,46.75 -46.75,46.75 -25.81931,0 -46.75,-20.93069 -46.75,-46.75 C 222.5,74.930688 243.43069,54 269.25,54 295.06931,54 316,74.930688 316,100.75 z"
         sodipodi:ry="46.75"
         sodipodi:rx="46.75"
         sodipodi:cy="100.75"
         sodipodi:cx="269.25"
         id="path3900"
         style="fill:#bf5e4a;fill-opacity:1;fill-rule:evenodd;stroke:none;filter:url(#filter3940)"
         sodipodi:type="arc" />
      <path
         sodipodi:type="arc"
         style="fill:url(#linearGradient3978);fill-opacity:1;fill-rule:evenodd;stroke:#7c7c7c;stroke-width:1px;stroke-linecap:butt;stroke-linejoin:miter;stroke-opacity:1"
         id="path3855"
         sodipodi:cx="269.25"
         sodipodi:cy="100.75"
         sodipodi:rx="46.75"
         sodipodi:ry="46.75"
         d="m 316,100.75 c 0,25.81931 -20.93069,46.75 -46.75,46.75 -25.81931,0 -46.75,-20.93069 -46.75,-46.75 C 222.5,74.930688 243.43069,54 269.25,54 295.06931,54 316,74.930688 316,100.75 z"
         transform="matrix(0.36083057,0,0,0.36083057,133.70289,909.65782)" />
      <path
         transform="matrix(0.72710282,0,0,0.72710282,37.627322,871.59973)"
         d="m 261,103 c 0,2.76142 -2.23858,5 -5,5 -2.76142,0 -5,-2.23858 -5,-5 0,-2.76142 2.23858,-5 5,-5 2.76142,0 5,2.23858 5,5 z"
         sodipodi:ry="5"
         sodipodi:rx="5"
         sodipodi:cy="103"
         sodipodi:cx="256"
         id="path3867"
         style="fill:#000000;fill-opacity:1"
         sodipodi:type="arc" />
      <path
         sodipodi:type="arc"
         style="fill:#000000;fill-opacity:1"
         id="path3877"
         sodipodi:cx="256"
         sodipodi:cy="103"
         sodipodi:rx="5"
         sodipodi:ry="5"
         d="m 261,103 c 0,2.76142 -2.23858,5 -5,5 -2.76142,0 -5,-2.23858 -5,-5 0,-2.76142 2.23858,-5 5,-5 2.76142,0 5,2.23858 5,5 z"
         transform="matrix(0.72710282,0,0,0.72710282,51.324363,871.59973)" />
      <path
         sodipodi:nodetypes="czccc"
         inkscape:connector-curvature="0"
         id="path3917"
         d="m 198.34063,964.47406 c 30.76801,23.98699 38.78727,19.51127 47.56171,18.0266 8.77441,-1.48467 8.15433,-13.00457 8.15433,-13.00457 0,0 -4.53564,1.76856 -17.19314,2.83155 -9.8607,0.50844 -24.12261,-0.53723 -38.5229,-7.85358 z"
         style="fill:#ffffff;fill-opacity:1;stroke:#000000;stroke-width:1.32043791px;stroke-linecap:butt;stroke-linejoin:miter;stroke-opacity:1" />
      <path
         transform="matrix(0.98475482,0,0,1.1758099,-3.0915158,829.53426)"
         d="m 223,76.75 c 0,3.175637 -3.46979,5.75 -7.75,5.75 -4.28021,0 -7.75,-2.574363 -7.75,-5.75 0,-3.175637 3.46979,-5.75 7.75,-5.75 4.28021,0 7.75,2.574363 7.75,5.75 z"
         sodipodi:ry="5.75"
         sodipodi:rx="7.75"
         sodipodi:cy="76.75"
         sodipodi:cx="215.25"
         id="path3919"
         style="fill:#9ea1c0;fill-opacity:1"
         sodipodi:type="arc" />
      <path
         sodipodi:type="arc"
         style="fill:#9ea1c0;fill-opacity:1"
         id="path3921"
         sodipodi:cx="215.25"
         sodipodi:cy="76.75"
         sodipodi:rx="7.75"
         sodipodi:ry="5.75"
         d="m 223,76.75 c 0,3.175637 -3.46979,5.75 -7.75,5.75 -4.28021,0 -7.75,-2.574363 -7.75,-5.75 0,-3.175637 3.46979,-5.75 7.75,-5.75 4.28021,0 7.75,2.574363 7.75,5.75 z"
         transform="matrix(0.98475482,0,0,1.1758099,43.075127,830.12216)" />
      <path
         sodipodi:type="arc"
         style="fill:#000000;fill-opacity:1"
         id="path3825"
         sodipodi:cx="215.25"
         sodipodi:cy="76.75"
         sodipodi:rx="7.75"
         sodipodi:ry="5.75"
         d="m 223,76.75 c 0,3.175637 -3.46979,5.75 -7.75,5.75 -4.28021,0 -7.75,-2.574363 -7.75,-5.75 0,-3.175637 3.46979,-5.75 7.75,-5.75 4.28021,0 7.75,2.574363 7.75,5.75 z"
         transform="matrix(0.54976391,0,0,0.65642516,90.540283,869.41057)" />
      <path
         transform="matrix(0.59765805,0,0,0.71361138,126.23107,865.52153)"
         d="m 223,76.75 c 0,3.175637 -3.46979,5.75 -7.75,5.75 -4.28021,0 -7.75,-2.574363 -7.75,-5.75 0,-3.175637 3.46979,-5.75 7.75,-5.75 4.28021,0 7.75,2.574363 7.75,5.75 z"
         sodipodi:ry="5.75"
         sodipodi:rx="7.75"
         sodipodi:cy="76.75"
         sodipodi:cx="215.25"
         id="path3827"
         style="fill:#000000;fill-opacity:1"
         sodipodi:type="arc" />
      <path
         sodipodi:nodetypes="cczc"
         inkscape:connector-curvature="0"
         id="path3829"
         d="m 201.12033,918.73895 c 0,0 8.38817,-6.47849 15.55486,0.73922 0.66669,-4.28229 -1.87874,-8.05111 -7.85825,-7.12375 -5.97952,0.92735 -7.69661,6.38453 -7.69661,6.38453 z"
         style="fill:url(#linearGradient3980);fill-opacity:1;stroke:#000000;stroke-width:1px;stroke-linecap:butt;stroke-linejoin:miter;stroke-opacity:1" />
      <path
         style="fill:url(#linearGradient3982);fill-opacity:1;stroke:#000000;stroke-width:1px;stroke-linecap:butt;stroke-linejoin:miter;stroke-opacity:1"
         d="m 247.37033,919.23895 c 0,0 8.38817,-6.72849 15.55486,0.73922 0.66669,-4.28229 -1.87874,-8.05111 -7.85825,-7.12375 -5.97952,0.92735 -7.69661,6.38453 -7.69661,6.38453 z"
         id="path3839"
         inkscape:connector-curvature="0"
         sodipodi:nodetypes="cczc" />
      <path
         transform="matrix(0.33333333,0,0,0.33333333,137.58333,893.77885)"
         d="m 212,74 c 0,1.380712 -1.00736,2.5 -2.25,2.5 -1.24264,0 -2.25,-1.119288 -2.25,-2.5 0,-1.380712 1.00736,-2.5 2.25,-2.5 1.24264,0 2.25,1.119288 2.25,2.5 z"
         sodipodi:ry="2.5"
         sodipodi:rx="2.25"
         sodipodi:cy="74"
         sodipodi:cx="209.75"
         id="path3843"
         style="fill:#fffffe;fill-opacity:1;stroke:none"
         sodipodi:type="arc" />
      <path
         sodipodi:type="arc"
         style="fill:#fffffe;fill-opacity:1;stroke:none"
         id="path3845"
         sodipodi:cx="209.75"
         sodipodi:cy="74"
         sodipodi:rx="2.25"
         sodipodi:ry="2.5"
         d="m 212,74 c 0,1.380712 -1.00736,2.5 -2.25,2.5 -1.24264,0 -2.25,-1.119288 -2.25,-2.5 0,-1.380712 1.00736,-2.5 2.25,-2.5 1.24264,0 2.25,1.119288 2.25,2.5 z"
         transform="matrix(0.33333333,0,0,0.33333333,183.58333,894.27885)" />
      <path
         inkscape:connector-curvature="0"
         id="path3890"
         d="m 218,971.86218 0,5"
         style="fill:none;stroke:#000000;stroke-width:1px;stroke-linecap:butt;stroke-linejoin:miter;stroke-opacity:1" />
      <path
         inkscape:connector-curvature="0"
         id="path3892"
         d="m 228,971.86218 -1,9"
         style="fill:none;stroke:#000000;stroke-width:1px;stroke-linecap:butt;stroke-linejoin:miter;stroke-opacity:1" />
      <path
         sodipodi:nodetypes="cc"
         inkscape:connector-curvature="0"
         id="path3894"
         d="m 238,972.36218 -1.5,11"
         style="fill:none;stroke:#000000;stroke-width:1px;stroke-linecap:butt;stroke-linejoin:miter;stroke-opacity:1" />
      <path
         inkscape:connector-curvature="0"
         id="path3896"
         d="m 247,971.36218 -1,10.5"
         style="fill:none;stroke:#000000;stroke-width:1px;stroke-linecap:butt;stroke-linejoin:miter;stroke-opacity:1" />
      <path
         sodipodi:nodetypes="cc"
         inkscape:connector-curvature="0"
         id="path3898"
         d="m 203.5,967.86218 c 22.83333,12.5 39.16667,11 49.5,7"
         style="fill:none;stroke:#000000;stroke-width:1px;stroke-linecap:butt;stroke-linejoin:miter;stroke-opacity:1" />
    </g>
  </g>
</svg>
