<?xml version="1.0" encoding="UTF-8" standalone="no"?>
<!-- Created with Inkscape (http://www.inkscape.org/) -->

<svg
   xmlns:dc="http://purl.org/dc/elements/1.1/"
   xmlns:cc="http://creativecommons.org/ns#"
   xmlns:rdf="http://www.w3.org/1999/02/22-rdf-syntax-ns#"
   xmlns:svg="http://www.w3.org/2000/svg"
   xmlns="http://www.w3.org/2000/svg"
   xmlns:xlink="http://www.w3.org/1999/xlink"
   xmlns:sodipodi="http://sodipodi.sourceforge.net/DTD/sodipodi-0.dtd"
   xmlns:inkscape="http://www.inkscape.org/namespaces/inkscape"
   width="512"
   height="512"
   id="svg3227"
   version="1.1"
   inkscape:version="0.48.2 r9819"
   sodipodi:docname="logo.svg"
   inkscape:export-filename="/Volumes/Daten/Projects/MsPiggit/core/resources/images/logo.png"
   inkscape:export-xdpi="90"
   inkscape:export-ydpi="90">
  <defs
     id="defs3229">
    <clipPath
       id="clipPath18">
      <path
         d="m 0,0 2183.73,0 0,912 L 0,912 0,0 z"
         inkscape:connector-curvature="0"
         id="path20" />
    </clipPath>
    <linearGradient
       id="linearGradient3107">
      <stop
         style="stop-color:#362701;stop-opacity:1;"
         offset="0"
         id="stop3109" />
      <stop
         style="stop-color:#362701;stop-opacity:0;"
         offset="1"
         id="stop3111" />
    </linearGradient>
    <linearGradient
       id="linearGradient3115">
      <stop
         style="stop-color:#362701;stop-opacity:1;"
         offset="0"
         id="stop3117" />
      <stop
         style="stop-color:#362701;stop-opacity:0;"
         offset="1"
         id="stop3119" />
    </linearGradient>
    <radialGradient
       inkscape:collect="always"
       xlink:href="#linearGradient3939"
       id="radialGradient3969"
       gradientUnits="userSpaceOnUse"
       gradientTransform="matrix(0.97152564,-0.94993352,-0.79799149,-0.81613006,70.021313,1153.8302)"
       cx="236.50737"
       cy="45.796669"
       fx="236.50737"
       fy="45.796669"
       r="9.2848387" />
    <linearGradient
       id="linearGradient3939">
      <stop
         id="stop3941"
         offset="0"
         style="stop-color:#cf7853;stop-opacity:1;" />
      <stop
         id="stop3943"
         offset="1"
         style="stop-color:#ffafa1;stop-opacity:1;" />
    </linearGradient>
    <radialGradient
       inkscape:collect="always"
       xlink:href="#linearGradient3885"
       id="radialGradient3971"
       gradientUnits="userSpaceOnUse"
       gradientTransform="matrix(0.27195033,1.0296596,-0.90389653,0.2387342,221.2169,-197.42371)"
       cx="233.46516"
       cy="56.690838"
       fx="233.46516"
       fy="56.690838"
       r="9.2848387" />
    <linearGradient
       id="linearGradient3885">
      <stop
         style="stop-color:#000000;stop-opacity:1;"
         offset="0"
         id="stop3887" />
      <stop
         style="stop-color:#ffafa1;stop-opacity:1;"
         offset="1"
         id="stop3889" />
    </linearGradient>
    <linearGradient
       inkscape:collect="always"
       xlink:href="#linearGradient3893"
       id="linearGradient3973"
       gradientUnits="userSpaceOnUse"
       x1="236.259"
       y1="909.23718"
       x2="234.39014"
       y2="906.23718" />
    <linearGradient
       id="linearGradient3893">
      <stop
         style="stop-color:#ffafa1;stop-opacity:1;"
         offset="0"
         id="stop3895" />
      <stop
         style="stop-color:#ffead6;stop-opacity:1;"
         offset="1"
         id="stop3897" />
    </linearGradient>
    <radialGradient
       inkscape:collect="always"
       xlink:href="#linearGradient3847"
       id="radialGradient3975"
       gradientUnits="userSpaceOnUse"
       gradientTransform="matrix(0.60846561,0.81481481,-0.80124696,0.59833377,170.62193,-175.58138)"
       cx="256.59488"
       cy="94.853523"
       fx="256.59488"
       fy="94.853523"
       r="47.25" />
    <linearGradient
       id="linearGradient3847">
      <stop
         style="stop-color:#ffe5ae;stop-opacity:1;"
         offset="0"
         id="stop3849" />
      <stop
         style="stop-color:#ffafa1;stop-opacity:1;"
         offset="1"
         id="stop3851" />
    </linearGradient>
    <filter
       color-interpolation-filters="sRGB"
       inkscape:collect="always"
       id="filter3940"
       x="-0.12670808"
       width="1.2534162"
       y="-0.12670808"
       height="1.2534162">
      <feGaussianBlur
         inkscape:collect="always"
         stdDeviation="4.9363356"
         id="feGaussianBlur3942" />
    </filter>
    <linearGradient
       inkscape:collect="always"
       xlink:href="#linearGradient3861"
       id="linearGradient3978"
       gradientUnits="userSpaceOnUse"
       x1="276.58191"
       y1="86.086212"
       x2="277.39655"
       y2="95.862061" />
    <linearGradient
       id="linearGradient3861">
      <stop
         id="stop3863"
         offset="0"
         style="stop-color:#ff97ae;stop-opacity:1;" />
      <stop
         id="stop3865"
         offset="1"
         style="stop-color:#ffafa1;stop-opacity:1;" />
    </linearGradient>
    <linearGradient
       inkscape:collect="always"
       xlink:href="#linearGradient3847"
       id="linearGradient3980"
       gradientUnits="userSpaceOnUse"
       gradientTransform="translate(-2.0000041,-4)"
       x1="208.87033"
       y1="916.87909"
       x2="210.42519"
       y2="920.62909" />
    <linearGradient
       id="linearGradient3182">
      <stop
         style="stop-color:#ffe5ae;stop-opacity:1;"
         offset="0"
         id="stop3184" />
      <stop
         style="stop-color:#ffafa1;stop-opacity:1;"
         offset="1"
         id="stop3186" />
    </linearGradient>
    <linearGradient
       inkscape:collect="always"
       xlink:href="#linearGradient3847"
       id="linearGradient3982"
       gradientUnits="userSpaceOnUse"
       gradientTransform="translate(44.249996,-3.5)"
       x1="209.12033"
       y1="916.62909"
       x2="210.67519"
       y2="920.62909" />
    <linearGradient
       id="linearGradient3189">
      <stop
         style="stop-color:#ffe5ae;stop-opacity:1;"
         offset="0"
         id="stop3191" />
      <stop
         style="stop-color:#ffafa1;stop-opacity:1;"
         offset="1"
         id="stop3193" />
    </linearGradient>
    <clipPath
       id="clipPath18-0">
      <path
         d="m 0,0 2183.73,0 0,912 L 0,912 0,0 z"
         inkscape:connector-curvature="0"
         id="path20-8" />
    </clipPath>
    <linearGradient
       id="linearGradient3939-0">
      <stop
         id="stop3941-1"
         offset="0"
         style="stop-color:#cf7853;stop-opacity:1;" />
      <stop
         id="stop3943-4"
         offset="1"
         style="stop-color:#ffafa1;stop-opacity:1;" />
    </linearGradient>
    <linearGradient
       id="linearGradient3885-0">
      <stop
         style="stop-color:#000000;stop-opacity:1;"
         offset="0"
         id="stop3887-5" />
      <stop
         style="stop-color:#ffafa1;stop-opacity:1;"
         offset="1"
         id="stop3889-9" />
    </linearGradient>
    <linearGradient
       id="linearGradient3893-5">
      <stop
         style="stop-color:#ffafa1;stop-opacity:1;"
         offset="0"
         id="stop3895-5" />
      <stop
         style="stop-color:#ffead6;stop-opacity:1;"
         offset="1"
         id="stop3897-4" />
    </linearGradient>
    <linearGradient
       id="linearGradient3847-8">
      <stop
         style="stop-color:#ffe5ae;stop-opacity:1;"
         offset="0"
         id="stop3849-7" />
      <stop
         style="stop-color:#ffafa1;stop-opacity:1;"
         offset="1"
         id="stop3851-3" />
    </linearGradient>
    <linearGradient
       id="linearGradient3861-7">
      <stop
         id="stop3863-5"
         offset="0"
         style="stop-color:#ff97ae;stop-opacity:1;" />
      <stop
         id="stop3865-3"
         offset="1"
         style="stop-color:#ffafa1;stop-opacity:1;" />
    </linearGradient>
    <linearGradient
       id="linearGradient3182-7">
      <stop
         style="stop-color:#ffe5ae;stop-opacity:1;"
         offset="0"
         id="stop3184-6" />
      <stop
         style="stop-color:#ffafa1;stop-opacity:1;"
         offset="1"
         id="stop3186-2" />
    </linearGradient>
    <linearGradient
       id="linearGradient3189-2">
      <stop
         style="stop-color:#ffe5ae;stop-opacity:1;"
         offset="0"
         id="stop3191-8" />
      <stop
         style="stop-color:#ffafa1;stop-opacity:1;"
         offset="1"
         id="stop3193-0" />
    </linearGradient>
    <linearGradient
       inkscape:collect="always"
       xlink:href="#linearGradient3755"
       id="linearGradient3761"
       x1="152"
       y1="132.6468"
       x2="152"
       y2="26.976702"
       gradientUnits="userSpaceOnUse" />
    <linearGradient
       id="linearGradient3755">
      <stop
         style="stop-color:#e1e7fe;stop-opacity:1;"
         offset="0"
         id="stop3757" />
      <stop
         style="stop-color:#003156;stop-opacity:1;"
         offset="1"
         id="stop3759" />
    </linearGradient>
    <linearGradient
       y2="38.278854"
       x2="152"
       y1="159.83626"
       x1="152"
       gradientUnits="userSpaceOnUse"
       id="linearGradient4373"
       xlink:href="#linearGradient3755"
       inkscape:collect="always"
       gradientTransform="matrix(1.5937004,0,0,2.5499204,0.21113372,540.09516)" />
  </defs>
  <sodipodi:namedview
     id="base"
     pagecolor="#ffffff"
     bordercolor="#666666"
     borderopacity="1.0"
     inkscape:pageopacity="0.0"
     inkscape:pageshadow="2"
     inkscape:zoom="0.49497475"
     inkscape:cx="597.01616"
     inkscape:cy="449.91435"
     inkscape:document-units="px"
     inkscape:current-layer="layer1"
     showgrid="false"
     width="512px"
     inkscape:window-width="1280"
     inkscape:window-height="752"
     inkscape:window-x="0"
     inkscape:window-y="0"
     inkscape:window-maximized="1" />
  <metadata
     id="metadata3232">
    <rdf:RDF>
      <cc:Work
         rdf:about="">
        <dc:format>image/svg+xml</dc:format>
        <dc:type
           rdf:resource="http://purl.org/dc/dcmitype/StillImage" />
        <dc:title></dc:title>
      </cc:Work>
    </rdf:RDF>
  </metadata>
  <g
     inkscape:label="Ebene 1"
     inkscape:groupmode="layer"
     id="layer1"
     transform="translate(0,-540.3622)">
    <rect
       style="fill:url(#linearGradient4373);fill-opacity:1;fill-rule:evenodd;stroke:#000000;stroke-width:2.01588916999999990px;stroke-linecap:butt;stroke-linejoin:miter;stroke-opacity:1"
       id="rect2985"
       width="509.9841"
       height="509.9841"
       x="1.0079446"
       y="541.37018"
       ry="36.973846" />
    <g
       id="g3944"
       transform="matrix(2.9404691,0,0,2.9404691,-417.1997,-2033.0661)">
      <path
         style="fill:url(#radialGradient3969);fill-opacity:1;stroke:#7c7c7c;stroke-width:1.41700184px;stroke-linecap:butt;stroke-linejoin:miter;stroke-opacity:1"
         d="m 252.84416,890.40504 c 0,0 8.61831,-9.03606 22.32629,-11.08827 1.54407,12.03475 2.29935,15.46445 -3.0418,29.67625"
         id="path3925"
         inkscape:connector-curvature="0"
         sodipodi:nodetypes="ccc" />
      <g
         style="stroke:#7c7c7c;stroke-opacity:1"
         transform="matrix(1.4154723,-0.06581975,0.06581975,1.4154723,-207.2985,-381.89399)"
         id="g3903">
        <path
           style="fill:url(#radialGradient3971);fill-opacity:1;stroke:#7c7c7c;stroke-width:1px;stroke-linecap:butt;stroke-linejoin:miter;stroke-opacity:1"
           d="m 248,58.75 c 0,0 -3.58049,-6.914706 -8.5,-7.5 -2.86109,0.692255 -5.40431,0.84282 -9,2.25 -0.61123,5.674576 3,16.25 3,16.25"
           id="path3879"
           inkscape:connector-curvature="0"
           transform="translate(0,852.36218)"
           sodipodi:nodetypes="cccc" />
        <path
           style="fill:url(#linearGradient3973);fill-opacity:1;stroke:#7c7c7c;stroke-width:0.9592551px;stroke-linecap:butt;stroke-linejoin:miter;stroke-opacity:1"
           d="m 230.73864,905.69173 c 0,0 0.52084,3.93501 5.30991,5.61935 4.4193,-3.93296 3.46281,-7.71026 3.46281,-7.71026 z"
           id="path3883"
           inkscape:connector-curvature="0"
           sodipodi:nodetypes="cccc" />
      </g>
      <path
         transform="matrix(1.1758099,0,0,1.1758099,-87.643855,822.17972)"
         d="m 316,100.75 c 0,25.81931 -20.93069,46.75 -46.75,46.75 -25.81931,0 -46.75,-20.93069 -46.75,-46.75 C 222.5,74.930688 243.43069,54 269.25,54 295.06931,54 316,74.930688 316,100.75 z"
         sodipodi:ry="46.75"
         sodipodi:rx="46.75"
         sodipodi:cy="100.75"
         sodipodi:cx="269.25"
         id="path3077"
         style="fill:url(#radialGradient3975);fill-opacity:1;fill-rule:evenodd;stroke:#7c7d80;stroke-width:1px;stroke-linecap:butt;stroke-linejoin:miter;stroke-opacity:1"
         sodipodi:type="arc" />
      <path
         transform="matrix(0.3693634,0,0,0.3693634,130.90543,910.29814)"
         d="m 316,100.75 c 0,25.81931 -20.93069,46.75 -46.75,46.75 -25.81931,0 -46.75,-20.93069 -46.75,-46.75 C 222.5,74.930688 243.43069,54 269.25,54 295.06931,54 316,74.930688 316,100.75 z"
         sodipodi:ry="46.75"
         sodipodi:rx="46.75"
         sodipodi:cy="100.75"
         sodipodi:cx="269.25"
         id="path3900"
         style="fill:#bf5e4a;fill-opacity:1;fill-rule:evenodd;stroke:none;filter:url(#filter3940)"
         sodipodi:type="arc" />
      <path
         sodipodi:type="arc"
         style="fill:url(#linearGradient3978);fill-opacity:1;fill-rule:evenodd;stroke:#7c7c7c;stroke-width:1px;stroke-linecap:butt;stroke-linejoin:miter;stroke-opacity:1"
         id="path3855"
         sodipodi:cx="269.25"
         sodipodi:cy="100.75"
         sodipodi:rx="46.75"
         sodipodi:ry="46.75"
         d="m 316,100.75 c 0,25.81931 -20.93069,46.75 -46.75,46.75 -25.81931,0 -46.75,-20.93069 -46.75,-46.75 C 222.5,74.930688 243.43069,54 269.25,54 295.06931,54 316,74.930688 316,100.75 z"
         transform="matrix(0.36083057,0,0,0.36083057,133.70289,909.65782)" />
      <path
         transform="matrix(0.72710282,0,0,0.72710282,37.627322,871.59973)"
         d="m 261,103 c 0,2.76142 -2.23858,5 -5,5 -2.76142,0 -5,-2.23858 -5,-5 0,-2.76142 2.23858,-5 5,-5 2.76142,0 5,2.23858 5,5 z"
         sodipodi:ry="5"
         sodipodi:rx="5"
         sodipodi:cy="103"
         sodipodi:cx="256"
         id="path3867"
         style="fill:#000000;fill-opacity:1"
         sodipodi:type="arc" />
      <path
         sodipodi:type="arc"
         style="fill:#000000;fill-opacity:1"
         id="path3877"
         sodipodi:cx="256"
         sodipodi:cy="103"
         sodipodi:rx="5"
         sodipodi:ry="5"
         d="m 261,103 c 0,2.76142 -2.23858,5 -5,5 -2.76142,0 -5,-2.23858 -5,-5 0,-2.76142 2.23858,-5 5,-5 2.76142,0 5,2.23858 5,5 z"
         transform="matrix(0.72710282,0,0,0.72710282,51.324363,871.59973)" />
      <path
         sodipodi:nodetypes="czccc"
         inkscape:connector-curvature="0"
         id="path3917"
         d="m 198.34063,964.47406 c 30.76801,23.98699 38.78727,19.51127 47.56171,18.0266 8.77441,-1.48467 8.15433,-13.00457 8.15433,-13.00457 0,0 -4.53564,1.76856 -17.19314,2.83155 -9.8607,0.50844 -24.12261,-0.53723 -38.5229,-7.85358 z"
         style="fill:#ffffff;fill-opacity:1;stroke:#000000;stroke-width:1.32043791px;stroke-linecap:butt;stroke-linejoin:miter;stroke-opacity:1" />
      <path
         transform="matrix(0.98475482,0,0,1.1758099,-3.0915158,829.53426)"
         d="m 223,76.75 c 0,3.175637 -3.46979,5.75 -7.75,5.75 -4.28021,0 -7.75,-2.574363 -7.75,-5.75 0,-3.175637 3.46979,-5.75 7.75,-5.75 4.28021,0 7.75,2.574363 7.75,5.75 z"
         sodipodi:ry="5.75"
         sodipodi:rx="7.75"
         sodipodi:cy="76.75"
         sodipodi:cx="215.25"
         id="path3919"
         style="fill:#9ea1c0;fill-opacity:1"
         sodipodi:type="arc" />
      <path
         sodipodi:type="arc"
         style="fill:#9ea1c0;fill-opacity:1"
         id="path3921"
         sodipodi:cx="215.25"
         sodipodi:cy="76.75"
         sodipodi:rx="7.75"
         sodipodi:ry="5.75"
         d="m 223,76.75 c 0,3.175637 -3.46979,5.75 -7.75,5.75 -4.28021,0 -7.75,-2.574363 -7.75,-5.75 0,-3.175637 3.46979,-5.75 7.75,-5.75 4.28021,0 7.75,2.574363 7.75,5.75 z"
         transform="matrix(0.98475482,0,0,1.1758099,43.075127,830.12216)" />
      <path
         sodipodi:type="arc"
         style="fill:#000000;fill-opacity:1"
         id="path3825"
         sodipodi:cx="215.25"
         sodipodi:cy="76.75"
         sodipodi:rx="7.75"
         sodipodi:ry="5.75"
         d="m 223,76.75 c 0,3.175637 -3.46979,5.75 -7.75,5.75 -4.28021,0 -7.75,-2.574363 -7.75,-5.75 0,-3.175637 3.46979,-5.75 7.75,-5.75 4.28021,0 7.75,2.574363 7.75,5.75 z"
         transform="matrix(0.54976391,0,0,0.65642516,90.540283,869.41057)" />
      <path
         transform="matrix(0.59765805,0,0,0.71361138,126.23107,865.52153)"
         d="m 223,76.75 c 0,3.175637 -3.46979,5.75 -7.75,5.75 -4.28021,0 -7.75,-2.574363 -7.75,-5.75 0,-3.175637 3.46979,-5.75 7.75,-5.75 4.28021,0 7.75,2.574363 7.75,5.75 z"
         sodipodi:ry="5.75"
         sodipodi:rx="7.75"
         sodipodi:cy="76.75"
         sodipodi:cx="215.25"
         id="path3827"
         style="fill:#000000;fill-opacity:1"
         sodipodi:type="arc" />
      <path
         sodipodi:nodetypes="cczc"
         inkscape:connector-curvature="0"
         id="path3829"
         d="m 201.12033,918.73895 c 0,0 8.38817,-6.47849 15.55486,0.73922 0.66669,-4.28229 -1.87874,-8.05111 -7.85825,-7.12375 -5.97952,0.92735 -7.69661,6.38453 -7.69661,6.38453 z"
         style="fill:url(#linearGradient3980);fill-opacity:1;stroke:#000000;stroke-width:1px;stroke-linecap:butt;stroke-linejoin:miter;stroke-opacity:1" />
      <path
         style="fill:url(#linearGradient3982);fill-opacity:1;stroke:#000000;stroke-width:1px;stroke-linecap:butt;stroke-linejoin:miter;stroke-opacity:1"
         d="m 247.37033,919.23895 c 0,0 8.38817,-6.72849 15.55486,0.73922 0.66669,-4.28229 -1.87874,-8.05111 -7.85825,-7.12375 -5.97952,0.92735 -7.69661,6.38453 -7.69661,6.38453 z"
         id="path3839"
         inkscape:connector-curvature="0"
         sodipodi:nodetypes="cczc" />
      <path
         transform="matrix(0.33333333,0,0,0.33333333,137.58333,893.77885)"
         d="m 212,74 c 0,1.380712 -1.00736,2.5 -2.25,2.5 -1.24264,0 -2.25,-1.119288 -2.25,-2.5 0,-1.380712 1.00736,-2.5 2.25,-2.5 1.24264,0 2.25,1.119288 2.25,2.5 z"
         sodipodi:ry="2.5"
         sodipodi:rx="2.25"
         sodipodi:cy="74"
         sodipodi:cx="209.75"
         id="path3843"
         style="fill:#fffffe;fill-opacity:1;stroke:none"
         sodipodi:type="arc" />
      <path
         sodipodi:type="arc"
         style="fill:#fffffe;fill-opacity:1;stroke:none"
         id="path3845"
         sodipodi:cx="209.75"
         sodipodi:cy="74"
         sodipodi:rx="2.25"
         sodipodi:ry="2.5"
         d="m 212,74 c 0,1.380712 -1.00736,2.5 -2.25,2.5 -1.24264,0 -2.25,-1.119288 -2.25,-2.5 0,-1.380712 1.00736,-2.5 2.25,-2.5 1.24264,0 2.25,1.119288 2.25,2.5 z"
         transform="matrix(0.33333333,0,0,0.33333333,183.58333,894.27885)" />
      <path
         inkscape:connector-curvature="0"
         id="path3890"
         d="m 218,971.86218 0,5"
         style="fill:none;stroke:#000000;stroke-width:1px;stroke-linecap:butt;stroke-linejoin:miter;stroke-opacity:1" />
      <path
         inkscape:connector-curvature="0"
         id="path3892"
         d="m 228,971.86218 -1,9"
         style="fill:none;stroke:#000000;stroke-width:1px;stroke-linecap:butt;stroke-linejoin:miter;stroke-opacity:1" />
      <path
         sodipodi:nodetypes="cc"
         inkscape:connector-curvature="0"
         id="path3894"
         d="m 238,972.36218 -1.5,11"
         style="fill:none;stroke:#000000;stroke-width:1px;stroke-linecap:butt;stroke-linejoin:miter;stroke-opacity:1" />
      <path
         inkscape:connector-curvature="0"
         id="path3896"
         d="m 247,971.36218 -1,10.5"
         style="fill:none;stroke:#000000;stroke-width:1px;stroke-linecap:butt;stroke-linejoin:miter;stroke-opacity:1" />
      <path
         sodipodi:nodetypes="cc"
         inkscape:connector-curvature="0"
         id="path3898"
         d="m 203.5,967.86218 c 22.83333,12.5 39.16667,11 49.5,7"
         style="fill:none;stroke:#000000;stroke-width:1px;stroke-linecap:butt;stroke-linejoin:miter;stroke-opacity:1" />
    </g>
    <g
       transform="matrix(0.37356855,0,0,-0.37356855,-388.67977,1200.0895)"
       id="g10">
      <g
         transform="scale(0.1,0.1)"
         id="g12">
        <g
           id="g14">
          <g
             id="g4184"
             transform="matrix(3.401763,0,0,3.401763,13476.062,4475.1001)">
            <path
               d="m 1308.73,601.652 c -47.88,0 -83.54,-23.511 -83.54,-80.093 0,-42.633 23.5,-72.227 80.96,-72.227 48.7,0 81.78,28.695 81.78,73.988 0,51.328 -29.6,78.332 -79.2,78.332 z M 1213,202.133 c -11.33,-13.906 -22.62,-28.68 -22.62,-46.117 0,-34.786 44.36,-45.254 105.3,-45.254 50.48,0 119.24,3.535 119.24,50.468 0,27.895 -33.08,29.622 -74.88,32.243 l -127.04,8.66 z m 257.61,396.89 c 15.64,-20.023 32.2,-47.878 32.2,-87.91 0,-96.601 -75.72,-153.164 -185.35,-153.164 -27.88,0 -53.12,3.473 -68.77,7.817 l -28.73,-46.118 85.28,-5.21 c 150.58,-9.594 239.32,-13.954 239.32,-129.661 0,-100.109 -87.88,-156.652 -239.32,-156.652 -157.52,0 -217.57,40.0391 -217.57,108.781 0,39.18 17.41,60.02 47.87,88.782 -28.73,12.144 -38.29,33.89 -38.29,57.398 0,19.16 9.56,36.562 25.25,53.109 15.66,16.52 33.06,33.078 53.95,52.219 -42.64,20.883 -74.85,66.141 -74.85,130.555 0,100.074 66.15,168.804 199.28,168.804 37.43,0 60.07,-3.445 80.09,-8.699 l 169.72,0 0,-73.957 -80.08,-6.094"
               inkscape:connector-curvature="0"
               id="path22"
               style="fill:#362701;fill-opacity:1;fill-rule:nonzero;stroke:none" />
            <path
               d="m 1703.8,757.168 c -49.62,0 -78.33,28.746 -78.33,78.371 0,49.563 28.71,76.563 78.33,76.563 50.48,0 79.2,-27 79.2,-76.563 0,-49.625 -28.72,-78.371 -79.2,-78.371 z m -112.29,-523.012 0,68.719 44.4,6.074 c 12.19,1.766 13.92,4.356 13.92,17.442 l 0,255.867 c 0,9.554 -2.6,15.672 -11.33,18.262 l -46.99,16.55 9.57,70.469 180.17,0 0,-361.148 c 0,-13.95 0.84,-15.676 13.93,-17.442 l 44.39,-6.074 0,-68.719 -248.06,0"
               inkscape:connector-curvature="0"
               id="path24"
               style="fill:#362701;fill-opacity:1;fill-rule:nonzero;stroke:none" />
            <path
               d="m 2183.73,267.895 c -37.44,-18.254 -92.26,-34.793 -141.89,-34.793 -103.56,0 -142.71,41.734 -142.71,140.121 l 0,228.004 c 0,5.211 0,8.707 -6.99,8.707 l -60.91,0 0,77.453 c 76.61,8.726 107.05,47.027 116.62,141.886 l 82.69,0 0,-123.625 c 0,-6.07 0,-8.699 6.97,-8.699 l 122.7,0 0,-87.015 -129.67,0 0,-207.989 c 0,-51.355 12.2,-71.355 59.17,-71.355 24.4,0 49.61,6.074 70.5,13.914 l 23.52,-76.609"
               inkscape:connector-curvature="0"
               id="path26"
               style="fill:#362701;fill-opacity:1;fill-rule:nonzero;stroke:none" />
          </g>
          <path
             style="fill:#ef3c2e;fill-opacity:1;fill-rule:nonzero;stroke:none"
             id="path28"
             inkscape:connector-curvature="0"
             d="m 16463.382,6019.8528 -1353.691,1353.5961 c -77.893,77.9647 -204.33,77.9647 -282.332,0 l -281.085,-281.1086 356.563,-356.5762 c 82.89,27.9865 177.902,9.226 243.944,-56.8333 66.385,-66.4662 85.016,-162.2842 56.326,-245.458 l 343.66,-343.6421 c 83.142,28.6458 179.069,10.1378 245.457,-56.3704 92.818,-92.7879 92.818,-243.1433 0,-335.964 -92.83,-92.8434 -243.185,-92.8434 -336.056,0 -69.791,69.847 -87.052,172.3892 -51.704,258.3781 l -320.497,320.5047 -0.05,-843.3912 c 22.629,-11.204 43.985,-26.153 62.841,-44.928 92.79,-92.783 92.79,-243.11 0,-336.034 -92.818,-92.778 -243.24,-92.778 -335.965,0 -92.803,92.924 -92.803,243.251 0,336.034 22.934,22.895 49.472,40.219 77.788,51.835 l 0,851.2233 c -28.316,11.578 -54.812,28.7814 -77.788,51.8393 -70.294,70.2397 -87.225,173.4086 -51.173,259.7294 l -351.482,351.5494 -928.178,-928.1222 c -77.988,-78.0254 -77.988,-204.4626 0,-282.4366 l 1353.677,-1353.6006 c 77.934,-77.96 204.33,-77.96 282.373,0 l 1347.35,1347.3253 c 77.962,78.0021 77.962,204.4766 0,282.4506" />
        </g>
      </g>
    </g>
  </g>
</svg>
